<svg width="536" height="475" viewBox="0 0 536 475" fill="none" xmlns="http://www.w3.org/2000/svg">
<path d="M339.239 438.075L323.946 423.26C322.499 421.858 321.647 419.954 321.566 417.942L318.035 330.846C317.973 329.321 318.618 315.808 321.693 273.962C322.685 260.456 323.488 250.901 324.129 244.262C324.735 237.989 332.947 226.143 337.876 222.216L364.367 201.113C364.686 200.859 365.009 200.638 365.364 200.437C384.844 189.379 430.375 164.111 460.962 149.077C483.102 138.194 491.759 138.551 494.321 141.554C496.125 143.668 496.132 147.05 498.037 149.075L513.47 165.473C515.006 167.105 515.771 169.316 515.572 171.548L512.616 204.654V253.692V308.698C512.616 309.51 512.49 310.316 512.242 311.089L497.786 356.266C497.228 358.008 496.08 359.501 494.539 360.486L394.475 424.45C393.905 424.815 393.289 425.105 392.644 425.311L347.093 439.911C344.337 440.794 341.318 440.089 339.239 438.075Z" fill="white"/>
<path d="M317.77 324.308L318.035 330.846M318.035 330.846L321.566 417.942C321.647 419.954 322.499 421.858 323.946 423.26L339.239 438.075C341.318 440.089 344.337 440.794 347.093 439.911L392.644 425.311C393.289 425.105 393.905 424.815 394.475 424.45L494.539 360.486C496.08 359.501 497.228 358.008 497.786 356.266L512.242 311.089C512.49 310.316 512.616 309.51 512.616 308.698V253.692V204.654L515.572 171.548C515.771 169.316 515.006 167.105 513.47 165.473L498.037 149.075C496.132 147.05 496.125 143.668 494.321 141.554C491.759 138.551 483.102 138.194 460.962 149.077C430.375 164.111 384.844 189.379 365.364 200.437C365.009 200.638 364.686 200.859 364.367 201.113L337.876 222.216C332.947 226.143 324.735 237.989 324.129 244.262C323.488 250.901 322.685 260.456 321.693 273.962C318.618 315.808 317.973 329.321 318.035 330.846Z" stroke="#030303" stroke-width="6.53846" stroke-linecap="round"/>
<path d="M276.106 25.2062C303.402 10.0173 330.918 9.92492 358.46 24.8195C385.26 39.3128 411.071 54.9598 438.46 70.7325C452.445 78.8421 465.632 86.2605 478.718 94.1671C507.35 111.467 521.573 136.289 521.881 169.548C522.298 214.552 522.266 259.573 521.854 304.591C521.55 337.931 507.265 362.844 478.623 379.784C438.93 403.26 399.131 426.44 358.955 448.853C331.444 464.201 303.762 464.188 276.229 448.866C236.419 426.713 197.038 403.704 157.606 380.538C128.048 363.172 113.511 337.673 113.301 303.296C113.031 259.135 113.084 214.957 113.282 170.759C113.438 136.133 128.157 110.626 157.998 93.1661C197.306 70.167 236.484 47.2549 276.106 25.2062ZM515.878 179.216C515.244 150.619 485.612 133.196 460.324 146.176C454.541 149.144 448.466 152.95 443.051 156.069L443.039 156.075C409.595 175.38 376.412 194.738 342.964 213.739C334.831 218.36 328.153 224.404 323.646 232.334C319.148 240.247 317.367 249.061 317.45 258.341C317.825 300.075 317.602 341.742 317.623 383.664C317.627 390.684 317.318 399.357 317.715 407.648L317.804 409.3C319.13 431.326 339.047 446.081 360.491 440.658C366.4 439.164 371.629 436.011 374.568 434.322C402.717 418.152 430.816 401.889 458.894 385.667C466.324 381.374 473.083 377.323 480.225 373.312C504.084 359.911 515.198 338.733 516.092 312.598C516.737 293.735 509.691 277.218 495.708 265.313C496.676 263.922 497.68 262.491 498.718 261.019C501.316 257.331 504.118 253.358 506.599 249.515C511.484 241.947 515.708 232.604 515.881 221.546C516.1 207.539 516.192 193.397 515.878 179.216Z" fill="#63BDA4" stroke="black" stroke-width="27.4615"/>
<path d="M417.789 341.854C425.604 343.715 442.966 342.343 449.896 321.964" stroke="black" stroke-width="13.0769" stroke-linecap="round"/>
<path d="M381.043 251.348V291.233" stroke="black" stroke-width="17" stroke-linecap="round"/>
<path d="M454.273 210.81V250.695" stroke="black" stroke-width="17" stroke-linecap="round"/>
<path d="M50.0392 138.123L172.848 257.265C174.371 258.743 175.231 260.775 175.231 262.897V320.728C175.231 323.448 176.639 325.974 178.953 327.403L250.876 371.836C256.103 375.065 262.846 371.305 262.846 365.161V253.738C262.846 250.998 261.417 248.456 259.075 247.033L59.5776 125.786C51.5874 120.93 43.3282 131.612 50.0392 138.123Z" fill="black"/>
<g filter="url(#filter0_d_136_4726)">
<path d="M344.672 116.048V114.458C344.672 113.451 345.488 112.634 346.496 112.634C347.022 112.634 347.522 112.407 347.868 112.011L348.059 111.793C348.831 110.911 350.117 110.695 351.135 111.277L353.24 112.48C353.42 112.582 353.61 112.667 353.806 112.731L368.572 117.563C369.306 117.804 370.104 117.757 370.806 117.434L387.723 109.625C388.455 109.288 389.023 108.676 389.306 107.922L391.371 102.416C391.467 102.158 391.529 101.889 391.553 101.615L394.168 72.566L395.839 61.4227C395.903 60.9997 396.054 60.5948 396.284 60.234L399.683 54.8929C399.931 54.5024 400.088 54.0607 400.141 53.601L401.771 39.4726C401.809 39.146 401.899 38.8275 402.038 38.5295L403.175 36.0925C403.62 35.1389 404.524 34.4809 405.568 34.3504L407.916 34.057C408.369 34.0003 408.843 34.0327 409.198 34.3193C410.502 35.3686 412.512 38.6907 413.318 46.3449C413.548 48.5309 413.877 50.1296 414.259 51.2745C415.02 53.556 419.154 55.7431 420.017 57.988L422.317 63.9682C422.406 64.1996 422.467 64.441 422.498 64.687L425.103 85.5292L425.587 93.7519C425.651 94.841 426.356 95.7877 427.381 96.1605C428.335 96.5075 429.403 96.2971 430.154 95.6142L435.414 90.8323C437.87 88.8682 443.428 84.5864 446.021 83.1722C448.613 81.758 449.065 86.1184 448.967 88.4753L447.299 102.372C447.234 102.918 447.022 103.436 446.687 103.873L439.216 113.585C438.673 114.291 437.849 114.725 436.96 114.774L432.998 114.994C430.657 115.124 429.327 117.731 430.595 119.704L437.347 130.208C437.969 131.175 439.081 131.712 440.225 131.598L454.386 130.182C455.409 130.079 456.409 130.528 457.014 131.359C457.819 132.465 457.738 133.984 456.821 135L450.887 141.569C450.408 142.1 449.758 142.446 449.05 142.547L434.101 144.683C433.8 144.726 433.494 144.724 433.194 144.676L419.679 142.557C418.994 142.449 418.366 142.112 417.898 141.601L408.899 131.784L402.664 124.045C401.464 122.555 399.205 122.52 397.959 123.973L397.168 124.896C396.937 125.165 396.662 125.392 396.353 125.567L380.12 134.766C379.489 135.123 378.751 135.245 378.039 135.11L367.249 133.054C366.93 132.994 366.624 132.883 366.34 132.726L353.274 125.498C353.04 125.368 352.824 125.209 352.631 125.023L345.608 118.25C345.01 117.674 344.672 116.879 344.672 116.048Z" fill="#FFEC5D"/>
<path d="M344.672 116.048V114.458C344.672 113.451 345.488 112.634 346.496 112.634C347.022 112.634 347.522 112.407 347.868 112.011L348.059 111.793C348.831 110.911 350.117 110.695 351.135 111.277L353.24 112.48C353.42 112.582 353.61 112.667 353.806 112.731L368.572 117.563C369.306 117.804 370.104 117.757 370.806 117.434L387.723 109.625C388.455 109.288 389.023 108.676 389.306 107.922L391.371 102.416C391.467 102.158 391.529 101.889 391.553 101.615L394.168 72.566L395.839 61.4227C395.903 60.9997 396.054 60.5948 396.284 60.234L399.683 54.8929C399.931 54.5024 400.088 54.0607 400.141 53.601L401.771 39.4726C401.809 39.146 401.899 38.8275 402.038 38.5295L403.175 36.0925C403.62 35.1389 404.524 34.4809 405.568 34.3504L407.916 34.057C408.369 34.0003 408.843 34.0327 409.198 34.3193C410.502 35.3686 412.512 38.6907 413.318 46.3449C413.548 48.5309 413.877 50.1296 414.259 51.2745C415.02 53.556 419.154 55.7431 420.017 57.988L422.317 63.9682C422.406 64.1996 422.467 64.441 422.498 64.687L425.103 85.5292L425.587 93.7519C425.651 94.841 426.356 95.7877 427.381 96.1605C428.335 96.5075 429.403 96.2971 430.154 95.6142L435.414 90.8323C437.87 88.8682 443.428 84.5864 446.021 83.1722C448.613 81.758 449.065 86.1184 448.967 88.4753L447.299 102.372C447.234 102.918 447.022 103.436 446.687 103.873L439.216 113.585C438.673 114.291 437.849 114.725 436.96 114.774L432.998 114.994C430.657 115.124 429.327 117.731 430.595 119.704L437.347 130.208C437.969 131.175 439.081 131.712 440.225 131.598L454.386 130.182C455.409 130.079 456.409 130.528 457.014 131.359C457.819 132.465 457.738 133.984 456.821 135L450.887 141.569C450.408 142.1 449.758 142.446 449.05 142.547L434.101 144.683C433.8 144.726 433.494 144.724 433.194 144.676L419.679 142.557C418.994 142.449 418.366 142.112 417.898 141.601L408.899 131.784L402.664 124.045C401.464 122.555 399.205 122.52 397.959 123.973L397.168 124.896C396.937 125.165 396.662 125.392 396.353 125.567L380.12 134.766C379.489 135.123 378.751 135.245 378.039 135.11L367.249 133.054C366.93 132.994 366.624 132.883 366.34 132.726L353.274 125.498C353.04 125.368 352.824 125.209 352.631 125.023L345.608 118.25C345.01 117.674 344.672 116.879 344.672 116.048Z" stroke="black" stroke-width="0.509925"/>
</g>
<path d="M401.139 33.0867C401.139 33.7152 400.589 34.2652 399.961 34.2652C399.018 34.2652 398.782 35.8365 398.782 43.693C398.782 51.5495 398.625 53.1208 397.604 53.1208C396.975 53.1208 396.425 53.6708 396.425 54.2993C396.425 54.9278 395.875 55.4778 395.247 55.4778C394.304 55.4778 394.068 56.4991 394.068 60.1917C394.068 63.8842 393.833 64.9056 392.89 64.9056C391.868 64.9056 391.711 66.7911 391.711 77.0831C391.711 88.1608 391.554 89.2607 390.376 89.2607C389.119 89.2607 388.962 90.0464 389.197 97.5101C389.433 105.367 389.354 105.759 387.862 105.759C386.762 105.759 386.369 106.152 386.683 106.938C386.997 107.724 386.683 108.116 385.505 108.116C384.405 108.116 384.012 108.509 384.326 109.295C384.719 110.238 384.169 110.473 381.969 110.473C379.848 110.473 379.298 110.709 379.612 111.652C380.005 112.595 379.455 112.83 377.177 112.83C374.898 112.83 374.348 113.066 374.741 114.009C375.056 115.03 374.034 115.187 367.749 115.187C361.621 115.187 360.285 114.952 360.285 114.009C360.285 113.38 359.735 112.83 359.107 112.83C358.478 112.83 357.928 112.28 357.928 111.652C357.928 110.866 357.143 110.473 355.571 110.473C354 110.473 353.214 110.08 353.214 109.295C353.214 108.352 352.193 108.116 348.501 108.116C344.808 108.116 343.787 108.352 343.787 109.295C343.787 109.923 343.237 110.473 342.608 110.473C341.665 110.473 341.43 111.495 341.43 115.187C341.43 118.88 341.665 119.901 342.608 119.901C343.237 119.901 343.787 120.608 343.787 121.472C343.787 122.494 344.179 122.887 344.965 122.572C345.751 122.258 346.144 122.572 346.144 123.751C346.144 124.851 346.536 125.244 347.322 124.929C348.186 124.615 348.501 124.929 348.501 126.186C348.501 127.443 348.815 127.758 349.679 127.443C350.465 127.129 350.857 127.522 350.857 128.543C350.857 129.407 351.407 130.115 352.036 130.115C352.664 130.115 353.214 130.665 353.214 131.372C353.214 132.393 353.764 132.55 355.571 132.157C357.614 131.764 357.928 131.922 357.928 133.414C357.928 134.907 358.243 134.986 361.464 134.671C364.528 134.279 364.999 134.436 364.999 135.693C364.999 137.107 365.706 137.185 374.82 137.185C383.776 137.185 384.719 137.028 384.483 135.771C384.248 134.593 384.798 134.436 388.019 134.671C391.318 134.907 391.711 134.828 391.711 133.336C391.711 132.236 392.104 131.843 392.89 132.157C393.754 132.472 394.068 132.157 394.068 130.9C394.068 129.643 394.383 129.329 395.247 129.643C396.032 129.957 396.425 129.565 396.425 128.543C396.425 127.522 396.818 127.129 397.604 127.443C398.389 127.758 398.782 127.443 398.782 126.265C398.782 125.322 399.254 124.615 399.961 124.615C400.746 124.615 401.139 125.479 401.139 127.365C401.139 129.407 401.375 129.957 402.318 129.643C403.103 129.329 403.496 129.643 403.496 130.822C403.496 131.922 403.889 132.314 404.675 132C405.539 131.686 405.853 132 405.853 133.257C405.853 134.514 406.167 134.828 407.032 134.514C407.817 134.2 408.21 134.593 408.21 135.693C408.21 136.871 408.603 137.185 409.388 136.871C410.174 136.557 410.567 136.95 410.567 137.971C410.567 138.835 411.117 139.542 411.745 139.542C412.374 139.542 412.924 140.092 412.924 140.721C412.924 141.349 413.474 141.899 414.102 141.899C414.731 141.899 415.281 142.449 415.281 143.078C415.281 143.942 416.224 144.256 418.816 144.256C421.409 144.256 422.352 144.571 422.352 145.435C422.352 146.456 424.394 146.613 435.708 146.613C447.021 146.613 449.064 146.456 449.064 145.435C449.064 144.649 449.849 144.256 451.421 144.256C452.992 144.256 453.778 143.863 453.778 143.078C453.778 142.449 454.328 141.899 454.956 141.899C455.585 141.899 456.135 141.349 456.135 140.721C456.135 140.092 456.685 139.542 457.313 139.542C457.942 139.542 458.492 138.835 458.492 137.971C458.492 136.95 458.884 136.557 459.67 136.871C460.613 137.264 460.849 136.557 460.849 133.336C460.849 130.115 460.613 129.486 459.67 129.8C458.884 130.115 458.492 129.8 458.492 128.622C458.492 127.129 458.02 126.972 453.778 126.972C449.614 126.972 449.064 127.129 449.064 128.543C449.064 129.957 448.514 130.115 444.35 130.115C440.107 130.115 439.636 129.957 439.636 128.543C439.636 127.443 439.165 126.972 438.3 127.129C437.515 127.286 436.886 126.893 436.886 126.186C436.886 125.558 436.336 125.008 435.708 125.008C434.844 125.008 434.608 124.222 434.765 122.415C434.922 120.137 434.765 119.823 433.351 120.294C432.094 120.687 431.779 120.451 431.779 119.194C431.779 117.78 432.251 117.544 435.708 117.544C438.693 117.544 439.636 117.23 439.636 116.366C439.636 115.737 440.186 115.187 440.814 115.187C441.443 115.187 441.993 114.637 441.993 114.009C441.993 113.38 442.543 112.83 443.171 112.83C443.8 112.83 444.35 112.28 444.35 111.652C444.35 111.023 444.9 110.473 445.528 110.473C446.157 110.473 446.707 109.923 446.707 109.295C446.707 108.666 447.257 108.116 447.885 108.116C448.75 108.116 449.064 107.174 449.064 104.581C449.064 101.988 449.378 101.045 450.242 101.045C451.185 101.045 451.421 99.5528 451.421 92.4033C451.421 85.0968 451.264 83.8397 450.242 84.2326C449.457 84.5468 449.064 84.2326 449.064 83.2898C449.064 82.0327 448.435 81.7971 444.35 81.7971C440.422 81.7971 439.636 82.0327 439.636 83.1327C439.636 83.9183 439.086 84.5468 438.458 84.5468C437.829 84.5468 437.279 85.0968 437.279 85.7253C437.279 86.3538 436.572 86.9038 435.708 86.9038C434.686 86.9038 434.294 87.2966 434.608 88.0823C434.922 88.8679 434.608 89.2607 433.429 89.2607C432.329 89.2607 431.937 89.6536 432.251 90.4392C432.565 91.2249 432.251 91.6177 431.072 91.6177C429.972 91.6177 429.58 92.0105 429.894 92.7962C430.208 93.6604 429.894 93.9746 428.637 93.9746C426.987 93.9746 426.987 93.8175 427.223 82.9755C427.458 72.7621 427.38 71.9764 426.044 71.9764C424.709 71.9764 424.63 71.3479 424.866 64.9056C425.101 58.6204 424.944 57.8347 423.766 57.8347C422.745 57.8347 422.352 57.2062 422.352 55.4778C422.352 53.9065 421.959 53.1208 421.173 53.1208C420.545 53.1208 419.995 52.5709 419.995 51.9423C419.995 51.3138 419.445 50.7639 418.816 50.7639C418.188 50.7639 417.638 50.2139 417.638 49.5854C417.638 48.9569 417.088 48.4069 416.459 48.4069C415.517 48.4069 415.281 47.0713 415.281 41.3361C415.281 35.6008 415.045 34.2652 414.102 34.2652C413.474 34.2652 412.924 33.7152 412.924 33.0867C412.924 32.1439 411.745 31.9082 407.032 31.9082C402.318 31.9082 401.139 32.1439 401.139 33.0867ZM410.645 43.5359C410.488 49.6639 410.645 50.7639 411.667 50.7639C412.374 50.7639 412.924 51.3138 412.924 51.9423C412.924 52.5709 413.474 53.1208 414.102 53.1208C414.731 53.1208 415.281 53.6708 415.281 54.2993C415.281 54.9278 415.831 55.4778 416.459 55.4778C417.245 55.4778 417.638 56.2634 417.638 57.8347C417.638 59.5631 418.031 60.1917 419.052 60.1917C420.23 60.1917 420.388 60.9773 420.152 67.2625C419.916 73.7048 419.995 74.3334 421.33 74.3334C422.666 74.3334 422.745 75.1976 422.509 87.6894C422.195 100.417 422.273 101.045 423.687 101.045C424.944 101.045 425.18 101.517 424.866 103.402C424.63 105.209 424.866 105.759 425.809 105.759C426.751 105.759 427.066 104.974 427.066 102.224C427.066 98.6885 427.066 98.6885 429.815 98.6885C431.858 98.6885 432.408 98.4528 432.094 97.5101C431.779 96.6458 432.094 96.3316 433.351 96.3316C434.608 96.3316 434.922 96.0173 434.608 95.1531C434.294 94.3675 434.686 93.9746 435.786 93.9746C436.965 93.9746 437.279 93.5818 436.965 92.7962C436.651 92.0105 437.043 91.6177 438.143 91.6177C439.165 91.6177 439.636 91.1463 439.479 90.2035C439.322 89.3393 439.715 88.9465 440.657 89.1036C441.522 89.2607 441.993 88.7893 441.993 87.8466C441.993 86.6681 442.543 86.3538 444.35 86.4324C446.707 86.511 447.807 87.6894 445.528 87.6894C444.9 87.6894 444.35 88.0037 444.35 88.4751C444.35 88.8679 444.9 89.025 445.528 88.7893C446.471 88.3965 446.707 89.1822 446.707 93.5032C446.707 97.5886 446.471 98.6885 445.528 98.6885C444.664 98.6885 444.35 99.6313 444.35 102.224C444.35 104.817 444.036 105.759 443.171 105.759C442.543 105.759 441.993 106.309 441.993 106.938C441.993 107.566 441.443 108.116 440.814 108.116C440.186 108.116 439.636 108.666 439.636 109.295C439.636 109.923 439.086 110.473 438.458 110.473C437.829 110.473 437.279 111.023 437.279 111.652C437.279 112.595 436.022 112.83 430.994 112.83C425.966 112.83 424.709 112.595 424.709 111.652C424.709 111.023 424.159 110.473 423.53 110.473C422.745 110.473 422.352 111.259 422.352 112.83C422.352 114.716 422.666 115.187 424.002 115.187C425.18 115.187 425.494 115.58 425.18 116.366C424.866 117.151 425.259 117.544 426.359 117.544C427.773 117.544 427.93 117.858 427.458 119.901C426.987 121.944 427.144 122.258 428.637 122.258C430.13 122.258 430.365 122.572 430.051 124.615C429.737 126.501 429.972 126.972 431.151 126.972C432.015 126.972 432.565 127.522 432.565 128.543C432.565 129.565 432.958 129.957 433.744 129.643C434.608 129.329 434.922 129.643 434.922 130.9C434.922 132.314 434.529 132.55 432.408 132.314C430.522 132.157 429.815 132.393 429.815 133.257C429.815 134.2 431.544 134.436 439.479 134.671C448.514 134.828 449.064 134.75 449.064 133.336C449.064 132.079 449.614 131.843 452.599 131.922C455.506 131.922 456.135 132.236 456.135 133.414C456.135 135.064 452.599 135.457 451.971 133.807C451.735 133.336 451.499 134.357 451.499 136.164C451.421 139.385 451.342 139.542 449.064 139.542C447.492 139.542 446.707 139.935 446.707 140.721C446.707 141.742 444.978 141.899 435.708 141.899C426.437 141.899 424.709 141.742 424.709 140.721C424.709 139.857 423.766 139.542 421.173 139.542C418.581 139.542 417.638 139.228 417.638 138.364C417.638 137.735 417.088 137.185 416.459 137.185C415.831 137.185 415.281 136.635 415.281 136.007C415.281 135.378 414.731 134.828 414.102 134.828C413.474 134.828 412.924 134.279 412.924 133.65C412.924 133.021 412.374 132.472 411.745 132.472C411.117 132.472 410.567 131.764 410.567 130.9C410.567 129.879 410.174 129.486 409.388 129.8C408.603 130.115 408.21 129.8 408.21 128.622C408.21 127.522 407.817 127.129 407.032 127.443C406.089 127.836 405.853 127.286 405.853 125.086C405.853 122.965 405.617 122.415 404.675 122.729C403.732 123.122 403.496 122.415 403.496 119.194C403.496 116.13 403.182 115.187 402.318 115.187C401.689 115.187 401.139 115.737 401.139 116.366C401.139 116.994 400.589 117.544 399.961 117.544C399.332 117.544 398.782 118.251 398.782 119.115C398.782 120.137 398.389 120.53 397.604 120.215C396.739 119.901 396.425 120.215 396.425 121.472C396.425 122.729 396.111 123.044 395.247 122.729C394.461 122.415 394.068 122.808 394.068 123.908C394.068 125.086 393.675 125.401 392.89 125.086C392.104 124.772 391.711 125.165 391.711 126.265C391.711 127.443 391.318 127.758 390.533 127.443C389.747 127.129 389.354 127.522 389.354 128.622C389.354 130.036 388.962 130.193 385.662 130.036C382.519 129.879 381.891 130.036 382.126 131.136C382.362 132.314 381.498 132.472 374.82 132.472C368.22 132.472 367.356 132.314 367.356 131.057C367.356 129.957 366.806 129.722 363.821 129.957C360.757 130.272 360.285 130.115 360.285 128.7C360.285 127.443 359.814 127.208 357.928 127.443C356.043 127.679 355.571 127.443 355.571 126.186C355.571 125.165 355.179 124.772 354.393 125.086C353.607 125.401 353.214 125.086 353.214 123.908C353.214 122.808 352.822 122.415 352.036 122.729C351.172 123.044 350.857 122.729 350.857 121.472C350.857 120.215 350.543 119.901 349.679 120.215C348.893 120.53 348.501 120.137 348.501 119.037C348.501 118.016 348.029 117.544 347.165 117.701C346.379 117.858 345.672 117.387 345.515 116.523C345.279 115.344 345.908 115.187 350.386 115.187C354.471 115.187 355.571 115.423 355.571 116.366C355.571 116.994 356.121 117.544 356.75 117.544C357.378 117.544 357.928 118.094 357.928 118.723C357.928 119.744 359.578 119.901 367.749 119.901C376.077 119.901 377.491 119.744 377.098 118.723C376.705 117.78 377.255 117.544 379.455 117.544C381.576 117.544 382.126 117.308 381.812 116.366C381.419 115.423 381.969 115.187 384.169 115.187C386.29 115.187 386.84 114.952 386.526 114.009C386.212 113.145 386.526 112.83 387.783 112.83C389.04 112.83 389.354 112.516 389.04 111.652C388.726 110.866 389.119 110.473 390.219 110.473C391.397 110.473 391.711 110.08 391.397 109.295C391.083 108.509 391.476 108.116 392.576 108.116C394.068 108.116 394.147 107.724 393.911 99.867C393.675 92.4033 393.833 91.6177 395.09 91.6177C396.268 91.6177 396.425 90.5178 396.425 79.4401C396.425 69.1481 396.582 67.2625 397.604 67.2625C398.546 67.2625 398.782 66.2412 398.782 62.5486C398.782 58.8561 399.018 57.8347 399.961 57.8347C400.589 57.8347 401.139 57.2848 401.139 56.6562C401.139 56.0277 401.689 55.4778 402.318 55.4778C403.339 55.4778 403.496 53.9065 403.496 45.7357V36.0722L407.11 36.1508L410.803 36.3079L410.645 43.5359ZM350.857 113.616C350.857 114.009 349.836 114.402 348.579 114.402C347.244 114.402 345.986 114.009 345.751 113.616C345.437 113.145 346.379 112.83 348.029 112.83C349.6 112.83 350.857 113.145 350.857 113.616Z" fill="black"/>
<path d="M405.855 39.4501C405.855 40.0787 405.54 40.3929 405.069 40.1572C404.676 39.9215 404.283 40.0787 404.283 40.4715C404.283 40.9429 405.54 41.3357 407.112 41.3357C410.176 41.3357 410.49 39.9215 407.583 38.9002C406.247 38.4288 405.855 38.5074 405.855 39.4501Z" fill="black"/>
<path d="M403.495 59.7212C403.495 61.0568 403.888 61.7639 404.752 61.7639C405.538 61.7639 405.852 61.214 405.695 60.0355C405.302 57.5214 403.495 57.2857 403.495 59.7212Z" fill="black"/>
<path d="M401.141 64.5917C401.141 65.2988 401.691 65.6916 402.476 65.5345C404.44 65.1416 404.676 63.3346 402.79 63.3346C401.848 63.3346 401.141 63.806 401.141 64.5917Z" fill="black"/>
<path d="M398.782 87.8467V93.9747H401.139H403.496V87.8467V81.7971H401.139H398.782V87.8467Z" fill="black"/>
<path d="M408.21 87.8467V93.9747H410.567H412.924V87.8467V81.7971H410.567H408.21V87.8467Z" fill="black"/>
<g filter="url(#filter1_d_136_4726)">
<path d="M264.881 76.4212C265.153 76.394 265.424 76.3669 265.704 76.339C266.965 84.8479 266.965 84.8479 268.252 93.5286C271.758 94.4947 275.264 95.4595 278.771 96.4236C279.751 96.694 280.732 96.9644 281.742 97.2429C287.759 98.8958 293.785 100.491 299.839 102.003C300.23 104.957 300.585 107.915 300.933 110.875C301.044 111.715 301.156 112.554 301.271 113.419C301.363 114.227 301.454 115.034 301.548 115.866C301.64 116.609 301.731 117.353 301.826 118.119C301.646 120.097 301.646 120.097 300.361 121.632C298.591 122.901 296.854 123.944 294.915 124.936C294.19 125.308 293.466 125.68 292.719 126.064C289.445 127.709 286.17 129.351 282.883 130.97C281.309 131.747 279.739 132.531 278.174 133.324C263.316 140.817 251.455 142.652 235.342 138.35C232.698 137.444 232.698 137.444 230.321 139.254C229.336 139.966 228.361 140.692 227.394 141.428C226.877 141.819 226.361 142.211 225.828 142.614C217.106 149.423 206.863 160.131 202.846 170.669C200.402 170.914 197.959 171.158 195.442 171.409C198.321 166.601 201.277 161.86 204.354 157.176C204.931 156.286 204.931 156.286 205.519 155.377C209.889 148.723 214.348 143.351 220.777 138.611C221.625 137.971 221.625 137.971 222.49 137.318C223.863 136.284 225.242 135.259 226.623 134.237C226.312 133.802 226.001 133.367 225.68 132.919C223.857 129.721 223.815 126.174 223.432 122.563C223.328 121.791 223.223 121.019 223.116 120.224C222.712 116.476 222.517 114.524 224.486 111.214C230.871 105.553 241.588 98.6841 250.401 97.8038C250.455 98.3466 250.509 98.8895 250.565 99.4487C251.103 99.2151 251.641 98.9815 252.195 98.7408C252.906 98.4385 253.617 98.1362 254.349 97.8247C255.052 97.5233 255.754 97.2218 256.478 96.9112C258.545 96.1596 258.545 96.1596 261.835 95.8309C261.998 97.4594 262.161 99.0879 262.328 100.766C259.668 101.58 257.008 102.394 254.267 103.232C254.104 104.345 253.941 105.458 253.773 106.604C255.823 109.147 258.487 109.429 261.587 109.977C267.827 109.906 273.454 109.458 278.615 105.784C278.492 104.192 278.492 104.192 277.464 102.576C274.388 101.378 271.377 100.513 268.087 100.191C268.141 100.733 268.195 101.276 268.251 101.835C269.92 102.08 269.92 102.08 271.624 102.329C271.732 103.415 271.84 104.501 271.952 105.619C270.622 106.026 269.292 106.433 267.921 106.852C268.899 105.658 269.876 104.464 270.883 103.234C270.437 103.57 269.991 103.906 269.531 104.252C267.475 105.36 266.604 105.265 264.384 104.714C265.172 104.361 265.959 104.008 266.77 103.645C266.147 94.661 265.524 85.6772 264.881 76.4212Z" fill="#07090C"/>
<path d="M199.889 168.692C195.094 178.718 186.551 204.523 190.735 227.539C194.399 247.69 199.667 264.632 202.676 272.926C203.377 274.858 204.866 276.387 206.746 277.214L220.158 283.116" stroke="#030303" stroke-width="6.53846" stroke-linecap="round"/>
<path d="M261.447 95.1632C261.612 96.8209 261.778 98.4786 261.948 100.186C261.196 100.232 261.196 100.232 260.428 100.279C259.77 100.329 259.112 100.38 258.434 100.432C257.455 100.5 257.455 100.5 256.457 100.57C254.391 100.808 254.391 100.808 252.364 102.835C251.998 105.335 251.998 105.335 252.866 107.858C257.929 111.429 261.939 111.333 267.825 110.75C268.391 110.704 268.957 110.658 269.539 110.61C273.113 110.264 275.938 109.459 279.121 107.772C279.223 106.088 279.326 104.403 279.432 102.668C275.659 99.6947 272.032 98.8141 267.47 97.9438C267.359 96.8387 267.249 95.7336 267.135 94.595C271.231 95.4904 275.177 96.7045 279.169 97.9906C284.388 99.6477 289.554 101.09 294.955 101.963C295.038 102.792 295.12 103.62 295.206 104.474C289.536 107.88 283.856 111.266 278.165 114.632C277.646 114.94 277.128 115.247 276.594 115.564C263.197 123.46 251.302 125.552 236.243 122.202C232.492 121.032 228.964 119.895 225.906 117.316C225.163 115.012 225.163 115.012 225.405 112.293C227.159 110.249 229.237 108.876 231.487 107.457C232.191 107.008 232.191 107.008 232.909 106.549C237.899 103.482 243.141 101.327 248.564 99.1981C249.447 98.843 250.329 98.4878 251.238 98.1218C257.769 95.5305 257.769 95.5305 261.447 95.1632Z" fill="#1D4666"/>
<path d="M298.776 104.576C299.132 107.008 299.459 109.438 299.768 111.876C299.873 112.566 299.977 113.255 300.084 113.965C300.315 115.882 300.454 117.618 300.271 119.54C298.8 121.229 298.8 121.229 296.347 122.451C295.821 122.743 295.295 123.036 294.753 123.337C292.852 124.391 290.93 125.393 288.997 126.387C287.943 126.929 287.943 126.929 286.868 127.483C282.116 129.907 277.328 132.235 272.47 134.44C271.895 134.704 271.32 134.969 270.728 135.241C269.9 135.609 269.9 135.609 269.055 135.984C268.583 136.195 268.111 136.406 267.625 136.624C264.89 137.572 262.028 138.114 259.204 138.756C258.739 134.092 258.273 129.428 257.793 124.623C259.416 124.167 261.039 123.71 262.712 123.24C269.716 120.987 275.723 117.592 281.998 113.809C282.662 113.41 283.325 113.011 284.009 112.599C284.701 112.182 285.394 111.765 286.107 111.336C286.795 110.921 287.484 110.507 288.193 110.08C289.544 109.264 290.892 108.443 292.237 107.618C292.848 107.246 293.459 106.874 294.088 106.491C294.902 105.991 294.902 105.991 295.733 105.481C297.107 104.743 297.107 104.743 298.776 104.576Z" fill="#14324E"/>
<path d="M264.675 76.4416C264.948 76.4144 265.222 76.3871 265.503 76.359C266.767 84.872 266.767 84.872 268.057 93.557C271.584 94.5217 275.112 95.485 278.64 96.4476C279.627 96.7176 280.613 96.9876 281.63 97.2658C287.683 98.9162 293.746 100.509 299.837 102.018C300.229 104.974 300.584 107.933 300.932 110.895C301.044 111.735 301.156 112.575 301.272 113.44C301.409 114.652 301.409 114.652 301.549 115.888C301.686 117.004 301.686 117.004 301.827 118.142C301.645 120.122 301.645 120.122 300.351 121.658C298.569 122.929 296.82 123.974 294.869 124.967C294.14 125.34 293.41 125.713 292.659 126.097C289.363 127.745 286.066 129.39 282.758 131.012C281.174 131.79 279.594 132.575 278.018 133.369C262.962 140.926 251.215 142.569 234.916 138.423C233.788 138.238 232.658 138.061 231.523 137.931C231.441 137.116 231.36 136.301 231.276 135.462C234.003 135.512 236.069 135.679 238.59 136.757C242.373 138.046 245.879 138.188 249.852 138.333C250.959 138.384 250.959 138.384 252.089 138.436C253.897 138.518 255.705 138.589 257.513 138.659C257.052 134.042 256.591 129.426 256.116 124.67C256.389 124.642 256.662 124.615 256.944 124.587C258.424 129.149 258.772 133.744 259.169 138.493C280.862 131.538 280.862 131.538 299.079 119.547C299.098 118.431 299.066 117.315 299.01 116.2C298.978 115.531 298.946 114.862 298.913 114.173C298.876 113.47 298.839 112.767 298.8 112.043C298.748 110.983 298.748 110.983 298.696 109.902C298.61 108.152 298.519 106.402 298.428 104.652C297.935 104.957 297.442 105.263 296.935 105.577C294.712 106.95 292.484 108.313 290.255 109.676C289.48 110.157 288.705 110.637 287.906 111.133C287.164 111.585 286.422 112.036 285.658 112.502C284.974 112.923 284.289 113.344 283.583 113.777C283.017 114.055 282.45 114.332 281.866 114.617C281.006 114.292 281.006 114.292 280.128 113.96C281.001 113.422 281.874 112.883 282.774 112.329C283.926 111.613 285.078 110.898 286.23 110.182C286.805 109.828 287.379 109.475 287.971 109.11C290.803 107.346 293.423 105.642 295.78 103.254C294.819 103.058 293.859 102.861 292.869 102.659C284.103 100.81 275.77 98.4437 267.394 95.2855C267.502 96.3717 267.611 97.4579 267.722 98.5771C268.21 98.6002 268.697 98.6233 269.199 98.6471C274.112 99.0279 276.862 100.045 280.715 103.097C280.516 105.844 279.948 107.239 277.979 109.188C275.101 111.514 271.959 111.728 268.391 112.068C267.824 112.138 267.257 112.208 266.673 112.28C261.65 112.786 258.072 111.642 253.421 109.719C251.988 108.46 251.988 108.46 251.328 106.033C251.495 103.522 251.495 103.522 252.785 101.783C254.56 100.723 254.56 100.723 256.448 100.794C256.945 100.933 257.442 101.072 257.953 101.215C257.308 101.485 256.662 101.756 255.997 102.034C253.867 103.067 253.867 103.067 253.31 104.951C253.327 106.694 253.327 106.694 254.493 107.898C260.172 111.111 266.782 109.973 272.93 108.861C275.089 108.035 276.584 107.155 278.478 105.814C278.355 104.221 278.355 104.221 277.322 102.605C274.227 101.408 271.197 100.544 267.887 100.223C267.941 100.766 267.995 101.309 268.051 101.869C269.171 102.031 270.291 102.193 271.445 102.361C271.553 103.447 271.662 104.533 271.773 105.652C269.765 106.264 269.765 106.264 267.717 106.889C268.701 105.693 269.685 104.498 270.699 103.266C270.25 103.603 269.801 103.939 269.338 104.285C267.268 105.395 266.392 105.301 264.159 104.751C264.951 104.397 265.744 104.044 266.56 103.68C265.938 94.6912 265.316 85.7026 264.675 76.4416Z" fill="#090C0E"/>
<path d="M224.565 119.874C225.519 120.168 226.473 120.462 227.455 120.765C237.128 123.692 246.381 125.84 256.592 125.777C257.024 130.103 257.457 134.429 257.902 138.886C249.94 139.681 242.051 139.605 234.697 136.239C236.736 133.813 238.969 133.28 241.941 132.205C241.514 130.231 241.514 130.231 240.69 128.193C237.79 126.697 236.897 126.31 233.796 127.227C232.054 129.804 232.054 129.804 230.922 132.479C228.841 132.376 228.841 132.376 226.634 132.08C225.185 129.838 225.27 127.733 225.034 125.102C224.945 124.128 224.855 123.154 224.763 122.149C224.697 121.399 224.632 120.648 224.565 119.874Z" fill="#14324E"/>
<path d="M261.421 95.1658C261.583 96.7911 261.745 98.4164 261.913 100.091C261.139 100.139 261.139 100.139 260.349 100.189C259.672 100.241 258.995 100.294 258.297 100.348C257.29 100.42 257.29 100.42 256.263 100.493C254.138 100.736 254.138 100.736 252.044 102.735C251.28 105.343 251.28 105.343 250.864 107.827C250.312 107.882 249.76 107.937 249.191 107.994C249.246 108.536 249.3 109.078 249.355 109.636C249.907 109.581 250.459 109.525 251.028 109.469C251.461 112.223 251.461 112.223 251.602 115.215C248.927 117.374 247.742 117.505 244.371 117.854C243.512 117.954 242.654 118.053 241.769 118.156C238.88 118.103 237.237 117.558 234.798 116.064C233.721 112.246 234.679 110.224 236.404 106.784C236.047 105.999 235.69 105.214 235.322 104.405C238.499 103.138 241.679 101.876 244.86 100.619C245.942 100.191 247.022 99.761 248.102 99.3298C249.657 98.7094 251.215 98.0949 252.772 97.4805C253.708 97.1092 254.644 96.7379 255.608 96.3553C258.076 95.4999 258.076 95.4999 261.421 95.1658Z" fill="#173046"/>
<path d="M233.807 125.522C239.154 125.481 239.154 125.481 241.486 126.603C242.462 127.943 242.462 127.943 242.42 130.155C242.293 130.794 242.166 131.434 242.035 132.093C235.382 135.109 235.382 135.109 232.584 135.912C230.091 136.704 228.113 138.027 225.945 139.45C225.59 138.672 225.235 137.894 224.869 137.093C225.552 136.635 226.235 136.177 226.938 135.706C230.338 133.021 231.963 129.308 233.807 125.522Z" fill="#030609"/>
<path d="M260.772 75.5175C262.061 75.3888 263.349 75.2602 264.676 75.1276C265.62 84.5744 266.563 94.0212 267.536 103.754C266.247 103.883 264.959 104.012 263.632 104.144C262.688 94.6974 261.745 85.2506 260.772 75.5175Z" fill="#59A190"/>
<path d="M248.078 110.698C249.191 110.994 249.191 110.994 250.328 111.296C249.523 111.92 248.717 112.543 247.888 113.186C249.033 113.071 250.178 112.957 251.358 112.839C251.245 114.445 251.245 114.445 250.816 116.185C246.493 118.028 242.162 118.616 237.709 117.083C237.114 116.735 236.519 116.387 235.906 116.029C236.033 114.01 236.033 114.01 236.367 111.868C239.871 109.773 244.174 110.057 248.078 110.698Z" fill="#830B17"/>
<path d="M249.839 97.6369C249.919 98.4376 249.999 99.2384 250.081 100.063C248.725 100.542 248.725 100.542 247.341 101.03C239.432 103.91 232.755 107.155 226.038 112.268C226.113 113.019 226.188 113.77 226.265 114.543C226.432 116.212 226.598 117.88 226.765 119.548C226.206 119.334 225.647 119.121 225.07 118.901C225.177 122.664 225.284 126.428 225.395 130.305C225.128 130.332 224.862 130.358 224.588 130.386C224.196 127.651 223.85 124.913 223.513 122.171C223.401 121.398 223.29 120.625 223.175 119.829C222.499 114.067 222.499 114.067 224.415 110.806C230.715 105.262 241.178 98.502 249.839 97.6369Z" fill="#121519"/>
<path d="M231.228 134.979C233.901 135.042 235.979 135.225 238.467 136.302C246.384 139.252 254.858 139.101 263.138 138.684C263.167 138.965 263.195 139.247 263.224 139.537C253.036 141.113 244.831 140.751 234.856 138.063C233.735 137.866 232.612 137.678 231.483 137.538C231.399 136.694 231.314 135.849 231.228 134.979Z" fill="#0E1012"/>
<path d="M224.695 110.662C225.177 110.614 225.66 110.566 226.157 110.516C226.152 111.002 226.147 111.487 226.142 111.987C226.137 112.625 226.132 113.263 226.127 113.92C226.122 114.551 226.117 115.183 226.111 115.834C226.102 117.712 226.102 117.712 226.362 119.958C225.853 119.749 225.345 119.539 224.822 119.323C224.941 122.954 225.06 126.586 225.183 130.327C224.941 130.351 224.7 130.375 224.452 130.4C224.121 127.739 223.816 125.075 223.515 122.411C223.421 121.657 223.327 120.903 223.231 120.126C223.151 119.397 223.071 118.668 222.988 117.917C222.91 117.248 222.831 116.578 222.751 115.889C222.828 113.594 223.394 112.454 224.695 110.662Z" fill="#191B1E"/>
<path d="M236.099 131.121C234.826 132.319 233.548 133.512 232.268 134.704C231.557 135.369 230.846 136.034 230.113 136.719C228.154 138.416 228.154 138.416 225.893 139.455C225.555 138.684 225.218 137.913 224.871 137.119C226.281 136.003 227.7 134.898 229.122 133.799C229.912 133.183 230.701 132.566 231.514 131.932C233.677 130.551 233.677 130.551 236.099 131.121Z" fill="#081F30"/>
<path d="M233.924 126.891C237.13 126.397 238.051 126.347 241.035 127.911C241.148 129.042 241.261 130.172 241.377 131.337C240.518 131.423 239.659 131.509 238.775 131.597C238.404 130.778 238.033 129.958 237.65 129.114C236.191 128.974 234.731 128.835 233.227 128.691C233.457 128.097 233.687 127.503 233.924 126.891Z" fill="#15334D"/>
<path d="M234.223 125.481C239.33 125.466 239.33 125.466 241.529 126.65C242.457 127.944 242.457 127.944 242.387 129.747C242.191 130.504 242.191 130.504 241.991 131.276C241.866 130.526 241.866 130.526 241.739 129.761C241.454 129.213 241.169 128.666 240.875 128.102C238.463 127.381 238.463 127.381 235.967 126.949C235.391 126.464 234.816 125.98 234.223 125.481Z" fill="#060C12"/>
<path d="M264.475 66.157C266.228 67.0201 266.228 67.0201 267.375 68.4902C267.371 71.003 266.874 73.1372 266.306 75.5912C266.389 77.7779 266.512 79.9411 266.677 82.1216C266.722 82.7538 266.767 83.386 266.813 84.0374C266.956 86.054 267.105 88.0701 267.254 90.0862C267.352 91.4545 267.45 92.8227 267.548 94.191C267.788 97.5429 268.032 100.894 268.28 104.246C268.57 104.217 268.861 104.188 269.16 104.158C270.031 104.071 270.903 103.984 271.801 103.894C271.886 104.751 271.972 105.608 272.06 106.491C271.946 105.348 271.832 104.206 271.714 103.028C270.364 102.73 270.364 102.73 268.987 102.426C268.93 101.855 268.873 101.284 268.814 100.695C272.999 100.681 276.155 100.849 279.723 103.103C280.627 104.925 280.627 104.925 280.949 106.477C275.73 111.631 269.046 111.619 261.93 111.874C258.278 111.391 255.236 110.173 252.608 107.56C252.953 105.449 252.953 105.449 253.937 103.056C256.359 101.721 256.359 101.721 259.045 100.797C259.717 100.549 260.389 100.302 261.082 100.047C261.773 99.8154 261.773 99.8154 262.479 99.5793C262.365 98.4367 262.251 97.294 262.134 96.1167C261.484 96.3709 260.834 96.6252 260.165 96.8871C259.314 97.2155 258.464 97.5439 257.587 97.8823C256.743 98.21 255.899 98.5378 255.03 98.8755C252.71 99.6809 252.71 99.6809 250.07 99.9447C250.013 99.3733 249.956 98.802 249.897 98.2134C251.245 97.6355 252.596 97.0649 253.948 96.4972C254.7 96.1787 255.452 95.8601 256.227 95.5319C258.44 94.7371 258.44 94.7371 261.961 94.3854C261.501 91.025 261.034 87.6657 260.565 84.3066C260.435 83.3554 260.305 82.4042 260.171 81.4242C260.042 80.5045 259.913 79.5848 259.78 78.6372C259.663 77.7927 259.546 76.9482 259.425 76.0782C259.059 73.6801 259.059 73.6801 258.248 71.3731C257.692 69.4574 257.692 69.4574 258.526 67.7895C260.592 66.197 261.873 66.0349 264.475 66.157Z" fill="#111213"/>
<path d="M263.216 101.63C263.271 102.181 263.326 102.733 263.383 103.301C261.775 104.297 261.775 104.297 260.134 105.313C260.244 106.416 260.355 107.519 260.468 108.656C264.132 108.29 267.795 107.924 271.569 107.547C272.023 106.387 272.476 105.228 272.943 104.034C271.761 103.595 270.579 103.156 269.361 102.704C269.305 102.152 269.25 101.601 269.194 101.032C273.254 101.017 276.315 101.177 279.775 103.351C280.651 105.11 280.651 105.11 280.962 106.609C275.897 111.586 269.413 111.578 262.51 111.828C258.968 111.363 256.018 110.188 253.47 107.667C255.015 101.666 257.394 102.118 263.216 101.63Z" fill="#60AD9B"/>
<path d="M264.848 66.0984C266.719 66.8844 266.719 66.8844 267.93 68.2483C267.965 71.096 267.361 72.4432 265.739 75.0211C262.612 74.8735 260.938 74.3765 258.791 72.4382C257.801 70.8986 257.801 70.8986 257.52 69.2881C259.251 66.4266 261.27 65.9971 264.848 66.0984Z" fill="#101313"/>
<path d="M237.697 112.024C242.214 111.46 245.569 111.255 249.965 112.043C246.894 113.893 245.249 113.949 241.413 114.143C238.803 113.781 238.803 113.781 236.953 113.343C237.198 112.908 237.444 112.472 237.697 112.024Z" fill="#9F2C38"/>
<path d="M262.641 67.4457C263.542 67.3889 263.542 67.3889 264.46 67.331C264.92 69.0618 265.344 70.8094 265.734 72.5678C265.097 73.7043 265.097 73.7043 263.198 73.961C262.298 74.0178 262.298 74.0178 261.379 74.0757C260.919 72.3449 260.495 70.5973 260.105 68.8389C260.742 67.7024 260.742 67.7024 262.641 67.4457Z" fill="#557E84"/>
<path d="M270.529 94.2556C275.424 95.5013 280.319 96.7471 285.363 98.0306C285.171 98.9172 284.978 99.8037 284.781 100.717C280.135 99.1574 275.489 97.5976 270.703 95.9905C270.645 95.418 270.588 94.8454 270.529 94.2556Z" fill="#0E1114"/>
<path d="M237.424 104.911C235.883 106.035 234.34 107.154 232.796 108.27C231.937 108.894 231.078 109.518 230.192 110.16C227.959 111.65 227.959 111.65 226.286 111.818C226.223 111.187 226.16 110.556 226.095 109.905C227.329 108.943 228.574 107.997 229.823 107.059C230.515 106.53 231.208 106.002 231.921 105.457C234.148 104.196 235.038 104.121 237.424 104.911Z" fill="#0C0E10"/>
<path d="M256.687 101C257.39 101.233 257.39 101.233 258.107 101.471C257.203 101.892 257.203 101.892 256.28 102.321C254.292 103.399 254.292 103.399 253.793 105.408C253.815 107.342 253.815 107.342 255.246 108.658C255.682 108.982 256.119 109.306 256.57 109.639C256.371 110.247 256.173 110.854 255.969 111.48C254.316 110.644 254.316 110.644 252.597 109.146C251.945 106.539 251.945 106.539 252.069 103.855C253.512 101.616 254.175 100.857 256.687 101Z" fill="#080D0F"/>
<path d="M259.134 96.7086C260.361 96.586 261.588 96.4635 262.852 96.3372C262.938 97.196 263.023 98.0548 263.112 98.9396C260.965 99.1541 258.818 99.3686 256.606 99.5896C257.405 98.1955 257.405 98.1955 259.134 96.7086Z" fill="#1F4A6A"/>
</g>
<defs>
<filter id="filter0_d_136_4726" x="344.417" y="33.7788" width="113.405" height="119.036" filterUnits="userSpaceOnUse" color-interpolation-filters="sRGB">
<feFlood flood-opacity="0" result="BackgroundImageFix"/>
<feColorMatrix in="SourceAlpha" type="matrix" values="0 0 0 0 0 0 0 0 0 0 0 0 0 0 0 0 0 0 127 0" result="hardAlpha"/>
<feOffset dy="7.84615"/>
<feComposite in2="hardAlpha" operator="out"/>
<feColorMatrix type="matrix" values="0 0 0 0 0 0 0 0 0 0 0 0 0 0 0 0 0 0 0.13 0"/>
<feBlend mode="normal" in2="BackgroundImageFix" result="effect1_dropShadow_136_4726"/>
<feBlend mode="normal" in="SourceGraphic" in2="effect1_dropShadow_136_4726" result="shape"/>
</filter>
<filter id="filter1_d_136_4726" x="181.116" y="66.0852" width="125.942" height="230.763" filterUnits="userSpaceOnUse" color-interpolation-filters="sRGB">
<feFlood flood-opacity="0" result="BackgroundImageFix"/>
<feColorMatrix in="SourceAlpha" type="matrix" values="0 0 0 0 0 0 0 0 0 0 0 0 0 0 0 0 0 0 127 0" result="hardAlpha"/>
<feOffset dy="5.23077"/>
<feGaussianBlur stdDeviation="2.61538"/>
<feComposite in2="hardAlpha" operator="out"/>
<feColorMatrix type="matrix" values="0 0 0 0 0 0 0 0 0 0 0 0 0 0 0 0 0 0 0.25 0"/>
<feBlend mode="normal" in2="BackgroundImageFix" result="effect1_dropShadow_136_4726"/>
<feBlend mode="normal" in="SourceGraphic" in2="effect1_dropShadow_136_4726" result="shape"/>
</filter>
</defs>
</svg>
