<svg xmlns="http://www.w3.org/2000/svg" width="53" height="53" viewBox="0 0 53 53" fill="none">
  <path d="M8.41138 16.2246C9.48702 15.6 10.5607 14.9721 11.6387 14.3516C16.6649 11.4585 21.6928 8.56845 26.7174 5.67254C26.9336 5.54794 27.1055 5.58141 27.3069 5.69817C30.6971 7.6635 34.0884 9.62701 37.4828 11.5849C40.0327 13.0557 42.5861 14.5204 45.1421 15.9803C45.3798 16.116 45.4801 16.2754 45.4798 16.5583C45.4735 22.8782 45.4744 29.1981 45.4814 35.518C45.4817 35.7851 45.3986 35.945 45.1677 36.0786C39.5041 39.3544 33.8439 42.6363 28.1638 45.8994C28.1925 45.8004 28.2218 45.6931 28.2915 45.6421C28.8145 45.2592 29.3513 44.8952 29.8686 44.5049C29.9625 44.4341 29.9868 44.2693 30.0544 44.132C34.9231 41.299 39.78 38.4808 44.6405 35.669C44.8158 35.5675 44.8681 35.4544 44.8679 35.2577C44.8612 29.1709 44.8604 23.0841 44.8579 16.9973C44.8579 16.9065 44.8481 16.8157 44.8411 16.6929C44.6161 16.8214 44.4312 16.9453 44.2315 17.0359C44.0387 17.1233 43.9771 17.2431 43.9783 17.4597C43.9881 19.3296 43.9835 21.1995 43.9838 23.0693C43.9842 26.9649 43.9849 30.8604 43.986 34.7559C43.9861 34.9108 43.995 35.0445 43.8189 35.1454C42.1281 36.1145 40.4435 37.0946 38.7497 38.0327C38.7351 37.9414 38.7281 37.889 38.7324 37.8207C40.35 36.8721 41.9562 35.9395 43.6128 34.9776C41.5853 33.8212 39.6205 32.7005 37.7313 31.623C37.5714 31.7896 37.4707 31.9494 37.3268 32.0353C36.5316 32.5105 35.7258 32.9675 34.9238 33.431C34.7098 33.5547 34.4964 33.6794 34.2779 33.8064C34.3153 33.8747 34.3379 33.9166 34.361 33.9582C35.123 35.3263 35.0159 36.7779 34.0602 38.0267C33.4835 38.7803 32.7601 39.3614 31.9173 39.7701C28.9388 41.2144 25.8691 41.2912 22.7488 40.3183C21.4672 39.9187 20.3269 39.2636 19.4376 38.2247C18.8261 37.5104 18.4647 36.6879 18.4752 35.7255C18.4885 34.4967 19.0805 33.5575 19.9529 32.7704C20.9039 31.9124 22.024 31.3656 23.237 30.9979C23.4825 30.9235 23.8218 30.9089 23.9422 30.7394C24.0667 30.564 23.9801 30.2337 23.9806 29.9711C23.981 29.816 24.0318 29.5796 23.9547 29.5211C23.7196 29.3424 23.7999 29.1184 23.7966 28.91C23.7879 28.3648 23.7976 27.8194 23.8085 27.2568C23.8844 27.2115 23.9516 27.1835 24.0236 27.1825C24.0284 27.8453 24.0284 28.4811 24.0284 29.1182C24.4326 29.0119 24.5423 28.7656 24.5141 28.369C24.4751 27.8191 24.5076 27.2642 24.5065 26.7114C24.5057 26.2755 24.5037 26.2755 24.0196 26.1071C24.0196 26.3866 24.0196 26.6541 23.9974 26.9217C23.9158 26.9214 23.8564 26.921 23.7964 26.8934C23.7964 26.6227 23.8111 26.378 23.7905 26.1363C23.7823 26.0405 23.7177 25.9051 23.6408 25.868C23.4199 25.7614 23.362 25.6006 23.3834 25.3745C23.3962 25.2394 23.3984 25.1002 23.3808 24.9661C23.3484 24.7186 23.4513 24.5783 23.6634 24.4577C24.721 23.8566 25.7683 23.2371 26.8252 22.6346C26.9993 22.5354 27.0557 22.4237 27.0555 22.2227C27.0522 17.4309 27.0567 12.6392 27.0588 7.8474C27.0588 7.75755 27.0473 7.6677 27.0386 7.53929C26.9199 7.6011 26.8439 7.6373 26.771 7.67914C22.6597 10.0393 18.5496 12.4016 14.4369 14.7591C13.5172 15.2863 12.586 15.793 11.664 16.3161C10.9948 16.6958 10.332 17.0871 9.64599 17.4613C9.60656 17.3912 9.58742 17.333 9.5793 17.2584C15.3054 13.9649 21.021 10.6887 26.7336 7.40727C26.9118 7.30493 27.0421 7.29256 27.2283 7.40015C31.2058 9.69743 35.1878 11.9867 39.1688 14.2779C40.6491 15.1299 42.1283 15.9838 43.6103 16.8328C43.6952 16.8814 43.8257 16.9444 43.893 16.9119C44.1667 16.7799 44.4241 16.6131 44.7056 16.4486C42.5137 15.187 40.3558 13.9479 38.2005 12.704C34.533 10.5873 30.867 8.46799 27.2013 6.34791C27.0703 6.27212 26.9711 6.23634 26.8125 6.32805C22.5523 8.79104 18.2884 11.2476 14.0226 13.7007C12.2913 14.6963 10.554 15.6812 8.81876 16.6457C8.81145 16.539 8.80477 16.4576 8.79809 16.3762C8.77537 16.3958 8.75265 16.4155 8.72993 16.4352C8.62375 16.365 8.51756 16.2948 8.41138 16.2246ZM30.9218 27.7856C30.9362 27.7614 30.9505 27.7371 30.9416 27.6858C30.9191 27.679 30.8966 27.6721 30.8508 27.6327C30.5627 27.4766 30.2745 27.3206 29.9863 27.1646C29.9705 27.1946 29.9546 27.2247 29.9388 27.2548C30.2357 27.4112 30.5327 27.5677 30.8503 27.7415C30.8665 27.7499 30.8838 27.7542 30.9218 27.7856ZM30.7623 29.1488C30.7623 29.1488 30.7467 29.1691 30.7676 29.2202C30.7676 29.3994 30.7676 29.5787 30.7676 29.7776C31.4258 30.1424 32.1007 30.5165 32.7736 30.8895C32.8993 30.4428 32.7377 30.2046 32.356 30.0228C31.8111 29.7635 31.2957 29.441 30.7623 29.1488ZM32.7322 34.268C32.7637 34.2595 32.7952 34.251 32.8239 34.1859C32.824 33.3127 32.8244 32.4395 32.8241 31.5663C32.824 31.1501 32.7947 31.1136 32.3518 30.9832C32.3518 31.8613 32.3659 32.7346 32.3443 33.607C32.3365 33.9222 32.3901 34.1507 32.7322 34.268ZM26.9327 32.7074C26.8753 32.7073 26.8179 32.7072 26.7508 32.6531C26.7492 32.0989 26.7409 31.5445 26.7501 30.9905C26.7529 30.8214 26.6995 30.7327 26.5497 30.6545C25.833 30.2803 25.1235 29.892 24.4105 29.5105C24.3557 29.4812 24.2939 29.4655 24.2153 29.4359C24.2153 30.3474 24.2135 31.2311 24.2191 32.1148C24.2195 32.1798 24.2565 32.2764 24.3062 32.3044C25.1081 32.7558 25.9147 33.1985 26.7397 33.6538C26.7478 33.4832 26.7542 33.3481 26.8139 33.2248C26.8683 33.2278 26.9227 33.2307 26.9866 33.2825C26.9866 33.3956 26.9866 33.5087 26.9866 33.6598C27.1091 33.5986 27.195 33.5617 27.2752 33.5148C27.9487 33.1205 28.6159 32.7144 29.2971 32.3343C29.5269 32.2061 29.6623 32.0776 29.5461 31.7894C28.9111 32.1587 28.2806 32.5282 27.6472 32.8927C27.3486 33.0645 27.2798 33.0212 27.2794 32.6747C27.2787 31.9948 27.2792 31.3149 27.2792 30.625C27.0628 30.6653 26.9787 30.7691 26.9825 30.9863C26.9923 31.5597 26.9795 32.1336 26.9327 32.7074ZM31.3178 31.4186C31.5755 31.5383 31.8331 31.6579 32.1211 31.7917C32.1211 31.5183 32.1103 31.2777 32.1247 31.0386C32.1349 30.869 32.0734 30.7753 31.9265 30.6976C31.5608 30.504 31.1942 30.309 30.8462 30.0856C30.6101 29.9341 30.4304 29.9229 30.2968 30.1267C30.3785 30.3526 30.5102 30.5505 30.5066 30.7459C30.5012 31.0332 30.6262 31.1614 30.8503 31.2867C30.7733 31.3132 30.6963 31.3398 30.5748 31.3784C30.5661 31.7776 30.5499 32.1769 30.557 32.5758C30.558 32.632 30.6671 32.694 30.7352 32.7396C30.9495 32.8832 31.168 33.0202 31.3812 33.2116C31.3773 33.2638 31.3733 33.316 31.328 33.3826C31.0656 33.2249 30.8031 33.0672 30.6133 32.9531C30.2802 33.1516 30.0089 33.3133 29.7051 33.4943C29.8325 33.9115 29.6008 34.1609 29.1969 34.3091C28.9344 34.4054 28.4377 34.0836 28.4312 33.8025C28.4264 33.5958 28.4303 33.389 28.4303 33.1641C27.6216 33.5215 27.6216 33.5215 27.6248 34.3416C27.6254 34.4973 27.6041 34.657 27.6307 34.808C27.6991 35.1954 27.5104 35.399 27.1857 35.5454C26.8855 35.6808 26.3889 35.3966 26.3836 35.0616C26.3777 34.6919 26.3914 34.3217 26.3803 33.9522C26.3775 33.859 26.3385 33.7262 26.2713 33.683C26.0154 33.5187 25.7412 33.3837 25.4306 33.2142C25.4306 33.387 25.4136 33.513 25.4338 33.6325C25.4907 33.969 25.3292 34.1531 25.0481 34.2936C24.68 34.4776 24.1619 34.1814 24.161 33.7689C24.1603 33.4185 24.1547 33.0679 24.1661 32.7178C24.1739 32.4816 24.0644 32.4111 23.8639 32.4797C22.8178 32.8378 21.8589 33.3368 21.1665 34.2457C20.4672 35.1636 20.428 36.1998 21.1017 37.1333C21.3473 37.4736 21.6445 37.8167 21.9949 38.0301C22.6244 38.4138 23.3119 38.7005 24.0002 39.0528C24.0231 39.0572 24.046 39.0616 24.1128 39.0635C25.5378 39.4365 26.9761 39.5174 28.4419 39.2803C28.4566 39.2729 28.4713 39.2656 28.5237 39.2443C28.5887 39.2316 28.6538 39.2189 28.7314 39.2215C28.746 39.2138 28.7607 39.2061 28.8167 39.1813C29.9401 38.9112 30.9707 38.4533 31.8493 37.6935C31.8843 37.7434 31.9193 37.7932 31.9378 37.8789C31.2299 38.5459 30.3893 38.9674 29.4556 39.2265C29.4411 39.2354 29.4265 39.2444 29.3917 39.2705C29.3754 39.2816 29.3585 39.2827 29.3031 39.2688C29.2817 39.2813 29.2604 39.2938 29.2014 39.3252C29.0938 39.348 28.9863 39.3708 28.8414 39.3863C28.8197 39.3979 28.798 39.4095 28.7332 39.4378C28.554 39.4686 28.3748 39.4994 28.1756 39.5094C28.1443 39.5202 28.113 39.5311 28.0358 39.5577C27.1242 39.6865 26.2136 39.6859 25.2944 39.52C25.276 39.507 25.2605 39.5106 25.2057 39.5359C25.1228 39.5175 25.04 39.4991 24.9477 39.4634C24.932 39.4669 24.9163 39.4704 24.8606 39.478C24.7964 39.4596 24.7321 39.4412 24.6587 39.4052C24.6429 39.4084 24.6272 39.4116 24.5746 39.4186C24.5287 39.4021 24.4827 39.3856 24.428 39.3504C24.4119 39.3537 24.3958 39.357 24.337 39.3628C24.2159 39.3248 24.0949 39.2869 23.9652 39.231C23.9492 39.2334 23.9333 39.2359 23.8743 39.2379C23.8194 39.2208 23.7641 39.2047 23.7096 39.1863C22.6936 38.845 21.7621 38.3606 21.0647 37.5125C20.5185 36.8482 20.2439 36.0968 20.4673 35.211C20.471 35.2056 20.479 35.1983 20.4776 35.1951C20.4728 35.1836 20.4648 35.1736 20.4576 35.12C20.6516 34.4472 21.0443 33.9076 21.5653 33.4594C22.1853 32.9261 22.8932 32.5505 23.6637 32.289C23.7764 32.2508 23.8779 32.1788 24.0007 32.1118C24.0121 32.0924 24.0073 32.077 23.9771 32.0114C23.9564 31.693 23.9357 31.3746 23.902 31.0415C23.8876 31.0496 23.8732 31.0576 23.8191 31.0858C23.451 31.1987 23.0768 31.2945 22.7159 31.4275C21.4757 31.8846 20.3551 32.5341 19.5146 33.5909C18.4002 34.9919 18.4512 36.7175 19.6248 38.0695C20.1069 38.6248 20.6746 39.0675 21.3104 39.4288C22.2352 39.9545 23.2347 40.2626 24.2947 40.5164C24.3355 40.52 24.3763 40.5236 24.4624 40.5204C24.9493 40.5766 25.4347 40.6562 25.9231 40.6849C27.8521 40.7985 29.7273 40.5439 31.4888 39.7096C32.9238 39.0299 34.1101 38.0813 34.5936 36.4185C34.5946 36.3938 34.5956 36.3691 34.5916 36.2954C34.5846 35.8979 34.5776 35.5005 34.5863 35.0903C34.5785 35.0753 34.5707 35.0603 34.542 35.0078C34.3931 34.6491 34.2442 34.2905 34.0845 33.9059C33.7211 34.116 33.4155 34.2748 33.1306 34.4652C32.9867 34.5613 32.8656 34.5971 32.7065 34.4842C32.6932 34.4845 32.68 34.4848 32.6667 34.4851C32.673 34.5047 32.6794 34.5243 32.6938 34.5862C33.0891 35.4991 33.0498 36.3755 32.4459 37.1742C32.3862 37.1614 32.3264 37.1487 32.2841 37.097C32.9249 36 32.8748 35.1753 32.0809 34.1483C31.8669 33.8716 31.6094 33.6294 31.4223 33.3573C31.4924 33.3541 31.5626 33.3509 31.6671 33.3594C31.8082 33.4805 31.9493 33.6016 32.1238 33.7514C32.1238 33.2159 32.1312 32.7331 32.1167 32.251C32.1142 32.1683 32.0363 32.0568 31.9619 32.0131C31.698 31.858 31.4205 31.7265 31.1531 31.5484C31.194 31.5042 31.235 31.46 31.3178 31.4186ZM33.9985 22.825C34.051 22.7875 34.1035 22.75 34.1966 22.7173C34.2471 22.7452 34.2958 22.7776 34.3485 22.8002C34.6995 22.9499 34.8431 23.1967 34.8218 23.5978C34.7905 24.1885 34.8159 24.7826 34.8288 25.375C34.8308 25.4667 34.8684 25.6026 34.9338 25.6411C35.762 26.1274 36.5983 26.5996 37.4549 27.0881C37.5561 26.9296 37.637 26.7889 37.7322 26.6589C37.7861 26.5854 37.8633 26.5293 37.93 26.4653C37.9888 26.5344 38.071 26.5939 38.1029 26.6739C38.5285 27.7438 38.9471 28.8166 39.3666 29.9242C39.3867 29.9478 39.4068 29.9715 39.4268 29.9951C39.4451 29.9684 39.4634 29.9417 39.486 29.8729C40.2875 28.3665 41.0878 26.8595 41.8933 25.3553C41.9437 25.261 42.035 25.189 42.1073 25.1067C42.1744 25.2035 42.2673 25.2912 42.3045 25.3986C42.6785 26.4808 43.0426 27.5666 43.4115 28.6507C43.5029 28.9194 43.6016 29.1854 43.7145 29.5016C43.74 29.4228 43.7495 29.4071 43.7495 29.3915C43.7474 25.3997 43.7434 21.4079 43.746 17.4162C43.7461 17.2431 43.682 17.1557 43.5417 17.0765C42.8448 16.683 42.1528 16.2804 41.4581 15.8828C41.3946 15.8465 41.3241 15.8227 41.2487 15.7896C41.1472 15.9515 41.052 16.097 40.963 16.2463C40.4563 17.0957 39.9528 17.947 39.4425 18.7941C39.397 18.8697 39.3108 18.9202 39.2435 18.9824C39.1874 18.9101 39.1116 18.846 39.0784 18.7643C38.856 18.2161 38.6437 17.6637 38.4258 17.1136C38.298 16.7911 38.1659 16.4704 38.0253 16.1227C37.7494 16.5296 37.4951 16.9048 37.2252 17.235C37.1837 17.1879 37.1422 17.1408 37.1092 17.0546C37.406 16.5952 37.7028 16.1358 37.9996 15.6764C38.0371 15.6784 38.0745 15.6804 38.112 15.6823C38.4935 16.6398 38.8751 17.5973 39.2719 18.5929C39.8665 17.5882 40.4418 16.6158 41.0255 15.6293C39.0626 14.5004 37.1151 13.3804 35.1131 12.2291C35.4361 13.3842 35.7438 14.4848 36.037 15.5985C36.0452 15.6129 36.0535 15.6274 36.0813 15.678C36.1097 15.7835 36.1381 15.889 36.1521 16.0078C36.1604 16.0221 36.1687 16.0365 36.1962 16.086C36.2132 16.1637 36.2302 16.2415 36.2436 16.3587C36.2599 16.3924 36.2762 16.4261 36.3119 16.4947C36.3289 16.5723 36.3459 16.6499 36.3594 16.7672C36.3759 16.8011 36.3924 16.835 36.4302 16.9072C36.5078 17.1553 36.5853 17.4033 36.6739 17.6868C36.7468 17.6067 36.7892 17.5601 36.87 17.5196C36.9134 17.5643 36.9569 17.609 36.9917 17.692C36.8772 17.8495 36.7626 18.0071 36.6046 18.2243C36.5332 18.0381 36.4851 17.936 36.4542 17.8287C35.9206 15.9729 35.3923 14.1155 34.8504 12.2622C34.8124 12.1321 34.7011 11.9897 34.5846 11.9222C32.3399 10.6213 30.0894 9.33075 27.8402 8.03778C27.6762 7.94347 27.5133 7.84697 27.3128 7.7298C27.3128 12.6181 27.3128 17.4579 27.3128 22.342C27.4776 22.246 27.6246 22.1766 27.7531 22.0817C27.9481 21.9377 28.1168 21.9409 28.3288 22.0692C28.7823 22.3436 29.2539 22.5878 29.7182 22.8439C29.7963 22.887 29.8754 22.928 29.9848 22.9865C29.9848 22.3775 29.9756 21.8226 29.9927 21.2686C29.9961 21.1608 30.102 21.0563 30.1626 21.009C30.1727 21.1077 30.1828 21.2063 30.202 21.3496C30.2035 22.0936 30.2348 22.8392 30.1958 23.581C30.1708 24.059 30.2691 24.4013 30.7086 24.5691C30.6626 24.6112 30.6165 24.6533 30.5301 24.6902C30.0377 24.559 29.9044 24.2163 29.9814 23.7461C29.9923 23.6797 29.975 23.6088 29.9846 23.542C30.0117 23.3532 29.9412 23.244 29.768 23.1529C29.256 22.8834 28.7515 22.5986 28.2528 22.3047C28.1057 22.218 27.9993 22.2334 27.8613 22.3137C26.5932 23.0512 25.3215 23.7823 24.0514 24.5163C23.9552 24.5719 23.863 24.6347 23.7388 24.7131C24.2706 25.0037 24.7596 25.2708 25.2438 25.5353C25.3534 25.4317 25.4383 25.3191 25.55 25.2514C26.0449 24.9512 26.5395 24.6484 27.0503 24.3776C27.374 24.2059 27.7224 24.2252 28.0488 24.4081C28.4699 24.6439 28.8959 24.8719 29.3053 25.127C29.5057 25.252 29.6733 25.4307 29.8652 25.6259C30.0907 25.7648 30.3132 25.9088 30.5422 26.0414C31.1111 26.3707 31.683 26.6949 32.2502 27.0621C32.2646 27.1123 32.2791 27.1624 32.301 27.2586C32.3216 27.4357 32.2473 27.5444 32.0867 27.6244C31.8459 27.7442 31.611 27.8787 31.3845 28.0243C31.2111 28.1357 31.07 28.1396 30.8886 28.0249C30.6094 27.8483 30.3073 27.7086 30.0364 27.5647C29.93 27.8353 29.8366 28.0729 29.7391 28.3208C30.5263 28.7484 31.3374 29.1891 32.178 29.66C32.362 29.764 32.5541 29.8559 32.7275 29.9755C32.8746 30.0771 32.9878 30.0711 33.1414 29.9804C34.0282 29.457 34.9218 28.9453 35.8135 28.4304C36.3925 28.096 36.9723 27.7628 37.557 27.426C36.6469 26.9014 35.7554 26.3875 34.8317 25.8822C34.8196 25.9002 34.8074 25.9182 34.7941 25.9309C34.7941 25.9309 34.7987 25.9338 34.7517 25.9124C34.7026 25.8986 34.6534 25.8847 34.591 25.8256C34.591 25.0216 34.591 24.2177 34.591 23.4137C34.5445 23.4129 34.498 23.4121 34.4515 23.4113C34.4376 24.3284 34.4236 25.2455 34.3763 26.1541C34.3218 26.1567 34.2673 26.1594 34.2013 26.1082C34.2036 25.48 34.171 24.849 34.2185 24.2242C34.2604 23.6729 34.1499 23.2659 33.5798 23.0938C33.5725 23.0916 33.5682 23.079 33.5983 23.0551C33.6521 23.018 33.7059 22.981 33.7998 22.9493C34.0196 22.9959 34.1669 23.287 34.4826 23.1597C34.2851 23.0385 34.1235 22.9392 33.9985 22.825ZM29.6721 31.2345C29.6649 31.2877 29.632 31.3687 29.6545 31.3901C29.9443 31.6648 29.806 32.0004 29.7884 32.3154C29.7782 32.499 29.7406 32.6811 29.7153 32.8638C29.757 32.8778 29.7988 32.8918 29.8405 32.9058C29.9127 32.7946 30.0435 32.6856 30.0473 32.5721C30.0679 31.9694 30.0658 31.3654 30.0523 30.7623C30.0464 30.4971 29.8626 30.4194 29.6284 30.5144C29.4288 30.5954 29.209 30.6249 28.999 30.6806C28.9327 30.6982 28.856 30.711 28.8069 30.7531C28.647 30.8905 28.6083 30.802 28.5548 30.6517C28.5138 30.5367 28.4347 30.4286 28.3507 30.3381C28.2802 30.2622 28.1643 30.229 28.0948 30.1525C28.0429 30.0954 28.0329 29.9993 28.0043 29.9206C28.079 29.9276 28.1678 29.9108 28.2259 29.9458C28.424 30.0652 28.6015 30.2231 28.8065 30.3263C28.9332 30.39 29.1299 30.4482 29.2358 30.3929C29.6186 30.1929 29.9832 29.9541 30.3406 29.7089C30.5229 29.5837 30.5035 29.3886 30.4009 29.2125C30.2938 29.0285 30.1331 29.009 29.9537 29.0998C29.8506 29.152 29.7412 29.1985 29.6513 29.2692C29.3046 29.5417 28.9789 29.5632 28.6656 29.2175C28.535 29.0733 28.4022 29.0739 28.2379 29.1888C27.7885 29.5032 27.3286 29.5038 26.8574 29.2157C26.5996 29.058 26.3232 28.9314 26.0269 28.7759C26.0202 28.9154 26.0259 29.0032 26.0103 29.0869C25.9538 29.3903 26.0754 29.5648 26.3546 29.6882C26.6797 29.832 26.9824 30.0267 27.2986 30.192C27.462 30.2775 27.53 30.3929 27.5223 30.5862C27.5076 30.9554 27.5301 31.3261 27.5176 31.6955C27.511 31.8915 27.5954 31.9846 27.7677 31.9469C28.0061 31.8948 28.2482 31.829 28.4669 31.723C28.8468 31.5387 29.2099 31.3192 29.6067 31.1538C29.6343 31.1683 29.6619 31.1828 29.6721 31.2345ZM37.8566 26.9209C37.8129 27.0065 37.7692 27.0921 37.7255 27.1776C37.7556 27.1751 37.7857 27.1725 37.8158 27.17C37.8539 27.3595 37.9242 27.5492 37.9227 27.7384C37.9203 28.0358 38.0584 28.3954 37.649 28.5695C37.61 28.5861 37.6024 28.7094 37.6023 28.7832C37.6016 29.5326 37.6109 30.2821 37.6039 31.0315C37.6022 31.2118 37.6658 31.3078 37.8189 31.3946C39.6822 32.4513 41.5415 33.5151 43.4025 34.576C43.4975 34.6301 43.5981 34.6744 43.7197 34.735C43.7298 34.6445 43.7395 34.598 43.7396 34.5515C43.7412 33.1986 43.7432 31.8457 43.7402 30.4929C43.7399 30.3885 43.715 30.2801 43.6814 30.1805C43.4799 29.5825 43.2711 28.987 43.0674 28.3898C42.7494 27.4577 42.4336 26.5248 42.0954 25.5292C42.011 25.6828 41.9554 25.7812 41.9023 25.8809C41.1493 27.2934 40.3983 28.707 39.6405 30.1169C39.5854 30.2193 39.4811 30.2948 39.3996 30.3829C39.3307 30.2853 39.24 30.1967 39.1964 30.0888C38.764 29.018 38.3395 27.944 37.9036 26.8501C37.8907 26.8601 37.8778 26.8702 37.8566 26.9209ZM37.3669 31.0737C37.3669 30.3004 37.3669 29.527 37.3669 28.7253C37.162 28.8247 36.9961 28.8941 36.8407 28.9824C35.753 29.6005 34.6776 30.2418 33.5756 30.8326C33.1875 31.0406 33.0155 31.2606 33.0414 31.7237C33.0866 32.5343 33.054 33.3494 33.054 34.198C33.1403 34.1605 33.1931 34.1433 33.2403 34.1162C34.4359 33.4303 35.6214 32.7255 36.8314 32.0663C37.2351 31.8464 37.4648 31.6028 37.3669 31.0737ZM28.9309 27.5855C28.9326 27.255 28.9462 26.9241 28.933 26.5942C28.918 26.2193 29.0021 25.9163 29.4679 25.777C28.8969 25.4555 28.3761 25.169 27.8623 24.87C27.6178 24.7278 27.3939 24.7416 27.1567 24.8827C26.7509 25.124 26.3394 25.3559 25.9296 25.5905C25.6991 25.7225 25.5899 25.9174 25.5931 26.1882C25.5986 26.6645 25.6 27.141 25.5887 27.6171C25.5824 27.881 25.6812 28.0618 25.9134 28.1811C26.3676 28.4142 26.8141 28.6632 27.2736 28.8848C27.3933 28.9424 27.5781 28.9817 27.6837 28.9289C28.1532 28.6942 28.6048 28.423 28.9968 28.2023C28.9691 27.9692 28.9496 27.8052 28.9309 27.5855ZM33.0014 30.6256C33.0069 30.7075 33.0123 30.7894 33.0189 30.8888C33.0884 30.8609 33.1342 30.8484 33.1742 30.8256C34.5529 30.0385 35.9309 29.2504 37.3091 28.4625C37.744 28.2139 37.744 28.2139 37.6716 27.6744C37.6256 27.6903 37.5791 27.6985 37.5404 27.7207C36.0762 28.5603 34.6109 29.398 33.1538 30.2498C33.0691 30.2993 33.0508 30.4648 33.0014 30.6256ZM30.3945 27.1236C30.5881 27.2318 30.7794 27.3445 30.9766 27.4456C31.0401 27.4782 31.1372 27.516 31.1878 27.4899C31.419 27.3707 31.6392 27.2296 31.8962 27.0768C31.2262 26.7033 30.6102 26.3598 29.9724 26.0041C29.9092 26.8594 29.9092 26.8594 30.3945 27.1236ZM24.7343 28.4032C24.6698 28.719 24.7827 28.9576 25.1019 28.9842C25.271 28.9983 25.4937 28.9036 25.6172 28.7809C25.7504 28.6485 25.5772 28.5346 25.4638 28.4439C25.2119 28.2425 25.1121 27.9671 25.1067 27.652C25.1027 27.4194 25.0891 27.1849 25.111 26.9543C25.138 26.6712 25.0006 26.5565 24.7344 26.5026C24.7344 27.1304 24.7344 27.7388 24.7343 28.4032ZM24.6613 25.4971C24.3263 25.3151 23.9912 25.1331 23.6482 24.9468C23.557 25.5371 23.5571 25.537 24.012 25.7848C24.1384 25.8537 24.264 25.9241 24.3903 25.9932C24.6202 26.119 24.8503 26.2444 25.0962 26.3786C25.1556 25.7712 25.1556 25.7712 24.6613 25.4971ZM25.694 29.5969C25.413 29.448 25.1279 29.3064 24.8527 29.1475C24.6807 29.0481 24.5589 29.0778 24.4341 29.2429C25.2074 29.6582 25.9596 30.07 26.722 30.4617C26.818 30.511 26.9673 30.4545 27.092 30.447C27.0926 30.4181 27.0931 30.3892 27.0937 30.3604C26.6402 30.1116 26.1867 29.8628 25.694 29.5969ZM29.3655 27.9028C29.399 27.8572 29.4611 27.8119 29.4617 27.7659C29.4685 27.2188 29.4661 26.6715 29.4661 26.115C29.2458 26.1334 29.2027 26.283 29.2004 26.4569C29.1949 26.8728 29.1884 27.2889 29.1977 27.7046C29.1994 27.7774 29.2763 27.8484 29.3655 27.9028ZM27.3842 34.8254C27.3842 34.4752 27.3842 34.125 27.3842 33.7748C27.3429 33.7484 27.3017 33.722 27.2604 33.6956C27.2164 33.7787 27.1369 33.8606 27.1344 33.9449C27.1216 34.3833 27.1285 34.8224 27.1285 35.2612C27.1702 35.2691 27.212 35.277 27.2537 35.2848C27.2972 35.1497 27.3407 35.0145 27.3842 34.8254ZM29.3002 33.9758C29.3554 33.9041 29.4553 33.8341 29.4582 33.7602C29.4739 33.3597 29.4656 32.9581 29.4656 32.4935C29.3414 32.5912 29.2087 32.6473 29.2087 32.7033C29.2092 33.1317 29.2354 33.5601 29.3002 33.9758ZM24.6706 33.5494C24.5974 33.2636 24.8478 32.8844 24.3948 32.6374C24.3948 33.0624 24.3807 33.4281 24.4045 33.7914C24.4106 33.8843 24.5362 33.9693 24.6068 34.0579C24.628 34.0423 24.6492 34.0267 24.6705 34.0111C24.6705 33.8757 24.6705 33.7403 24.6706 33.5494ZM28.8819 32.8694C28.7176 32.9081 28.6437 33.0011 28.662 33.1816C28.6785 33.3447 28.6423 33.5153 28.6722 33.6744C28.6951 33.7963 28.7849 33.9054 28.845 34.0202C28.8739 34.0061 28.9029 33.992 28.9318 33.9779C28.9318 33.614 28.9318 33.25 28.8819 32.8694ZM26.7157 35.2161C26.7583 35.2342 26.8008 35.2523 26.8719 35.2825C26.8719 34.875 26.8811 34.491 26.8635 34.1083C26.8603 34.0382 26.7478 33.9734 26.6858 33.9061C26.6594 33.9229 26.6329 33.9397 26.6065 33.9565C26.6292 34.3664 26.652 34.7763 26.7157 35.2161ZM25.015 32.9742C24.9814 32.9998 24.9191 33.0249 24.9186 33.0512C24.9119 33.3771 24.9142 33.7033 24.9142 34.0439C25.1201 33.992 25.2326 33.8912 25.1885 33.6914C25.1378 33.4615 25.3332 33.1832 25.015 32.9742ZM29.7876 28.86C29.8484 28.8273 29.9091 28.7946 29.9954 28.7481C29.8372 28.6579 29.7197 28.5507 29.5882 28.5287C29.4843 28.5114 29.3632 28.5987 29.2498 28.6396C29.294 28.722 29.3215 28.8537 29.386 28.8759C29.4953 28.9136 29.6279 28.8821 29.7876 28.86ZM27.6023 32.6403C27.8357 32.502 28.069 32.3636 28.3718 32.1842C28.0456 32.2045 27.8066 32.2193 27.5352 32.2361C27.5418 32.3621 27.5487 32.4935 27.6023 32.6403ZM31.6565 27.6038C31.7467 27.5458 31.8368 27.4878 31.927 27.4298C31.9152 27.4086 31.9033 27.3874 31.8915 27.3662C31.776 27.4327 31.6605 27.4991 31.545 27.5656C31.5681 27.5857 31.5911 27.6057 31.6565 27.6038ZM29.0201 31.7718C28.9153 31.8111 28.8106 31.8504 28.7058 31.8897C28.7186 31.9145 28.7315 31.9393 28.7443 31.9641C28.8381 31.9107 28.9319 31.8573 29.0201 31.7718ZM25.5018 29.2683C25.5454 29.2615 25.589 29.2546 25.6326 29.2478C25.6029 29.2062 25.5733 29.1645 25.5437 29.1228C25.5194 29.1653 25.4951 29.2078 25.5018 29.2683ZM31.4231 27.7379C31.454 27.7047 31.485 27.6715 31.5159 27.6382C31.5037 27.6235 31.4915 27.6088 31.4794 27.5941C31.3921 27.6465 31.3048 27.699 31.2176 27.7514C31.225 27.768 31.2325 27.7846 31.24 27.8012C31.2876 27.7862 31.3351 27.7712 31.4231 27.7379ZM28.8331 28.9145C28.8607 28.9855 28.8883 29.0564 28.9159 29.1274C28.9405 29.1136 28.965 29.0998 28.9895 29.0861C28.9384 29.0172 28.8872 28.9484 28.8331 28.9145ZM29.1281 31.694C29.1855 31.6793 29.243 31.6646 29.3004 31.6499C29.2886 31.6236 29.2768 31.5972 29.2649 31.5709C29.2203 31.6017 29.1756 31.6326 29.1281 31.694ZM29.3957 31.571C29.4116 31.5557 29.4277 31.5405 29.4426 31.5242C29.443 31.5238 29.4309 31.5116 29.4246 31.5049C29.4086 31.5202 29.3927 31.5356 29.3957 31.571ZM28.4592 32.0514C28.4518 32.0739 28.4432 32.0961 28.438 32.119C28.437 32.1235 28.4494 32.131 28.4556 32.1371C28.463 32.1146 28.4704 32.0921 28.4592 32.0514ZM32.0183 27.389C32.0266 27.3618 32.035 27.3346 32.0433 27.3074C32.0284 27.3083 32.0028 27.305 32.0004 27.311C31.9892 27.3391 31.9844 27.3699 32.0183 27.389ZM28.549 32.0358C28.5573 32.0496 28.5656 32.0635 28.5739 32.0773C28.5817 32.063 28.5987 32.0445 28.5948 32.0354C28.5894 32.0231 28.5678 32.0181 28.549 32.0358Z" fill="#080807"/>
  <path d="M24.0189 27.1561C23.9517 27.1841 23.8844 27.2121 23.7876 27.2543C23.6808 27.3071 23.6016 27.3422 23.5267 27.385C19.0555 29.9416 14.5846 32.4987 10.1142 35.0566C9.92374 35.1655 9.73781 35.2826 9.51955 35.4142C9.76504 35.5616 9.97592 35.6928 10.1909 35.8168C15.4739 38.8618 20.758 41.905 26.0378 44.9558C26.2145 45.0579 26.331 45.0164 26.4801 44.9296C29.255 43.3122 32.0303 41.6954 34.8086 40.0838C36.1095 39.3292 37.4167 38.5857 38.7211 37.8372C38.7282 37.8896 38.7352 37.942 38.7379 38.0438C36.4888 39.395 34.2431 40.6956 31.9992 41.9991C30.189 43.0506 28.3803 44.1049 26.5732 45.1619C26.4899 45.2106 26.3739 45.2934 26.3674 45.3686C26.3431 45.6531 26.3576 45.941 26.3576 46.2674C26.4857 46.1952 26.5602 46.154 26.634 46.1115C27.7705 45.4572 28.9069 44.8029 30.0433 44.1485C29.9869 44.2699 29.9625 44.4347 29.8687 44.5055C29.3514 44.8959 28.8146 45.2598 28.2916 45.6427C28.2219 45.6937 28.1926 45.801 28.1434 45.9038C28.1193 45.9437 28.0962 45.9622 28.0396 45.9706C27.9223 45.9088 27.8368 45.8103 27.7554 45.8136C27.4529 45.826 27.1635 46.1734 27.1551 46.4982C26.93 46.6384 26.6995 46.7706 26.4814 46.9211C26.2966 47.0485 26.1329 47.0312 25.96 46.9056C25.8681 46.8389 25.766 46.7866 25.66 46.6924C25.7173 46.6229 25.7832 46.5887 25.8029 46.5785C25.891 46.4496 25.9578 46.3519 26.0473 46.2537C26.0832 46.0445 26.0814 45.8334 26.1133 45.6277C26.156 45.3514 26.0239 45.2187 25.8003 45.0902C20.4598 42.0219 15.1297 38.935 9.77671 35.8891C9.17294 35.5456 8.83939 35.1988 8.97754 34.4867C9.02389 34.2478 9.018 33.9985 9.05331 33.7613C9.11735 33.7855 9.16406 33.8023 9.21518 33.8461C9.21959 34.3226 9.21959 34.7721 9.21959 35.2716C9.36025 35.2001 9.44536 35.1615 9.5261 35.1151C10.9533 34.2951 12.3806 33.4752 13.8065 32.653C14.456 32.2784 15.1028 31.8989 15.7509 31.5165C15.7495 31.5007 15.7442 31.4924 15.7197 31.4715C15.1565 30.5586 14.6086 29.6607 14.039 28.7271C13.7088 29.329 13.4009 29.8983 13.0832 30.4621C13.0255 30.5646 12.9282 30.6444 12.8491 30.7346C12.7713 30.645 12.6706 30.567 12.6191 30.4639C12.0384 29.303 11.4655 28.1381 10.8901 26.9745C10.7377 26.6665 10.5837 26.3592 10.4107 26.0118C10.0548 26.7368 9.72232 27.4141 9.37135 28.0881C9.30908 28.0103 9.26533 27.9359 9.23469 27.8534C9.25798 27.8278 9.26815 27.8103 9.28156 27.7723C9.58493 27.1316 9.88116 26.5094 10.189 25.8932C10.2404 25.7903 10.3422 25.7133 10.4207 25.6243C10.4905 25.7094 10.5791 25.7849 10.6271 25.8811C11.3115 27.2535 11.9903 28.6287 12.6706 30.0031C12.7235 30.1101 12.7779 30.2163 12.8525 30.3643C13.1944 29.7486 13.5089 29.182 13.8238 28.6155C13.9994 28.2995 14.0743 28.2965 14.2663 28.6111C14.63 29.2074 14.988 29.8073 15.3498 30.4048C15.5497 30.7348 15.7523 31.0631 15.9647 31.4103C16.1154 31.3268 16.2412 31.2591 16.3652 31.1882C17.7642 30.3876 19.1635 29.5876 20.5615 28.7852C21.641 28.1655 22.7186 27.5427 23.7971 26.9213C23.8565 26.9217 23.9158 26.922 24.0022 26.9454C24.0258 27.031 24.0223 27.0936 24.0189 27.1561Z" fill="#090707"/>
  <path d="M8.39126 16.2278C8.51774 16.2953 8.62392 16.3656 8.73011 16.4358C8.75283 16.4161 8.77554 16.3964 8.79826 16.3767C8.80494 16.4581 8.81163 16.5395 8.80556 16.6584C8.61672 16.8004 8.44062 16.9049 8.23936 17.0243C8.37884 17.1019 8.49731 17.1498 8.59479 17.2253C8.91112 17.4705 9.22918 17.5476 9.56847 17.2755C9.5876 17.3336 9.60673 17.3917 9.63085 17.4765C9.2842 17.6238 9.20057 17.8682 9.20904 18.236C9.23355 19.2996 9.21147 20.3643 9.18636 21.4286C9.10821 21.4286 9.05137 21.4287 8.98884 21.4018C8.98022 20.2459 8.97919 19.1169 8.97096 17.9879C8.97025 17.891 8.95237 17.748 8.88999 17.706C8.64665 17.5422 8.38218 17.4104 8.08905 17.2462C8.08905 17.3541 8.08903 17.4096 8.08905 17.4651C8.09043 23.3146 8.10244 29.1643 8.07782 35.0137C8.07517 35.6431 8.15553 36.1042 8.80493 36.3016C8.83087 36.3095 8.85144 36.3354 8.87385 36.3737C8.7997 36.4707 8.73305 36.5557 8.65068 36.6203C8.57896 36.6765 8.48948 36.7095 8.40785 36.7528C8.16206 36.6207 7.89565 36.5154 7.67903 36.3454C7.56787 36.2581 7.49182 36.0555 7.4912 35.9046C7.48065 33.353 7.48467 30.8013 7.48507 28.2497C7.48564 24.5586 7.48999 20.8675 7.47926 17.1764C7.4783 16.8494 7.56634 16.641 7.8662 16.513C8.04239 16.4378 8.20323 16.3259 8.39126 16.2278Z" fill="#020201"/>
  <path d="M8.41895 36.7684C8.48975 36.7089 8.57923 36.6758 8.65095 36.6196C8.73332 36.5551 8.79998 36.47 8.89256 36.3782C13.7776 39.1649 18.6442 41.9662 23.5088 44.7711C24.352 45.2573 25.1865 45.759 26.025 46.2535C25.9582 46.3512 25.8914 46.4489 25.8032 46.5778C25.7835 46.5881 25.7177 46.6222 25.648 46.6769C24.4662 46.0205 23.2877 45.3446 22.1104 44.6664C17.5499 42.0395 12.9899 39.4119 8.41895 36.7684Z" fill="#080807"/>
  <path d="M27.1757 46.4956C27.1637 46.1733 27.453 45.8259 27.7556 45.8136C27.837 45.8102 27.9225 45.9087 28.0244 45.9719C27.7605 46.1533 27.4782 46.3232 27.1757 46.4956Z" fill="#080807"/>
  <path d="M9.20728 21.429C9.21107 20.3647 9.23316 19.3 9.20865 18.2364C9.20017 17.8686 9.2838 17.6243 9.65076 17.4889C10.3317 17.0881 10.9946 16.6968 11.6638 16.3171C12.5858 15.794 13.5169 15.2873 14.4366 14.7601C18.5494 12.4026 22.6594 10.0403 26.7707 7.68013C26.8436 7.63829 26.9197 7.60209 27.0384 7.54028C27.0471 7.66869 27.0586 7.75854 27.0585 7.84839C27.0565 12.6401 27.052 17.4319 27.0553 22.2236C27.0554 22.4247 26.9991 22.5364 26.8249 22.6356C25.7681 23.2381 24.7208 23.8576 23.6632 24.4587C23.451 24.5793 23.3482 24.7196 23.3806 24.9671C23.3982 25.1012 23.396 25.2404 23.3832 25.3755C23.3618 25.6016 23.4197 25.7624 23.6405 25.869C23.7174 25.9061 23.7821 26.0414 23.7903 26.1373C23.8109 26.379 23.7962 26.6237 23.7962 26.8944C22.7183 27.5431 21.6406 28.1659 20.5612 28.7855C19.1632 29.5879 17.7639 30.3879 16.3649 31.1885C16.2409 31.2595 16.1151 31.3271 15.9644 31.4106C15.752 31.0635 15.5494 30.7352 15.3495 30.4051C14.9877 29.8076 14.6297 29.2078 14.266 28.6115C14.074 28.2968 13.9991 28.2999 13.8234 28.6159C13.5086 29.1823 13.1941 29.749 12.8522 30.3647C12.7776 30.2166 12.7232 30.1104 12.6703 30.0035C11.9899 28.629 11.3111 27.2539 10.6268 25.8815C10.5788 25.7853 10.4902 25.7098 10.4204 25.6246C10.3419 25.7136 10.2401 25.7907 10.1887 25.8935C9.88085 26.5098 9.58462 27.132 9.26755 27.7763C9.25061 27.8004 9.22238 27.7983 9.22277 27.771C9.2179 27.3342 9.21262 26.9247 9.2125 26.4898C9.21361 26.3439 9.20955 26.2234 9.20955 26.0759C9.2115 24.5089 9.20939 22.9689 9.20728 21.429ZM17.8155 25.9887C19.9352 24.7767 22.0537 23.5624 24.1766 22.3561C24.4021 22.2279 24.5119 22.0762 24.5111 21.804C24.5027 18.7665 24.5046 15.7289 24.5016 12.6913C24.5011 12.187 24.3411 12.0983 23.9063 12.347C21.0995 13.9524 18.2935 15.5594 15.4829 17.158C15.2525 17.289 15.1553 17.446 15.156 17.7131C15.1647 20.7505 15.1643 23.7879 15.1684 26.8253C15.169 27.2782 15.3541 27.3916 15.742 27.173C16.423 26.7892 17.0996 26.3975 17.8155 25.9887Z" fill="#16A3D0"/>
  <path d="M37.2406 17.2804C37.495 16.9052 37.7494 16.53 38.0252 16.1232C38.1659 16.4708 38.2979 16.7916 38.4257 17.1141C38.6436 17.6641 38.8559 18.2165 39.0784 18.7647C39.1115 18.8465 39.1873 18.9105 39.2434 18.9828C39.3107 18.9206 39.3969 18.8701 39.4424 18.7945C39.9527 17.9474 40.4562 17.0961 40.9629 16.2467C41.0519 16.0975 41.1471 15.952 41.2486 15.79C41.324 15.8232 41.3945 15.8469 41.458 15.8833C42.1527 16.2809 42.8447 16.6834 43.5416 17.0769C43.6819 17.1562 43.746 17.2436 43.7459 17.4166C43.7433 21.4083 43.7473 25.4001 43.7494 29.3919C43.7494 29.4075 43.7399 29.4232 43.7144 29.5021C43.6016 29.1859 43.5028 28.9198 43.4114 28.6512C43.0425 27.5671 42.6784 26.4813 42.3044 25.399C42.2672 25.2916 42.1743 25.2039 42.1072 25.1071C42.0349 25.1894 41.9437 25.2614 41.8932 25.3557C41.0877 26.8599 40.2874 28.367 39.464 29.9038C39.4172 29.9191 39.3923 29.9041 39.3673 29.889C38.947 28.817 38.5284 27.7442 38.1028 26.6743C38.0709 26.5943 37.9887 26.5348 37.9299 26.4658C37.8632 26.5297 37.786 26.5858 37.7321 26.6593C37.637 26.7894 37.556 26.93 37.4548 27.0886C36.5982 26.6 35.7619 26.1278 34.9337 25.6415C34.8683 25.6031 34.8307 25.4671 34.8287 25.3754C34.8158 24.783 34.7904 24.1889 34.8217 23.5982C34.843 23.1971 34.6994 22.9504 34.3484 22.8006C34.2957 22.7781 34.247 22.7456 34.1649 22.6988C33.0727 22.0912 32.0023 21.5196 30.9573 20.9037C30.6432 20.7186 30.4153 20.7433 30.1606 20.9506C30.1019 21.0567 29.996 21.1612 29.9926 21.269C29.9755 21.823 29.9847 22.3779 29.9847 22.9869C29.8753 22.9285 29.7962 22.8874 29.7181 22.8444C29.2538 22.5882 28.7822 22.3441 28.3287 22.0696C28.1167 21.9413 27.948 21.9381 27.753 22.0821C27.6245 22.177 27.4775 22.2464 27.3127 22.3424C27.3127 17.4583 27.3127 12.6185 27.3127 7.73022C27.5133 7.8474 27.6761 7.9439 27.8401 8.03821C30.0893 9.33117 32.3398 10.6217 34.5845 11.9227C34.701 11.9902 34.8123 12.1325 34.8503 12.2626C35.3922 14.1159 35.9205 15.9733 36.4542 17.8292C36.485 17.9364 36.5331 18.0386 36.6045 18.2247C36.7625 18.0075 36.8771 17.85 37.0125 17.6628C37.1025 17.5156 37.1716 17.398 37.2406 17.2804ZM29.1173 14.0631C28.8559 14.175 28.7814 14.3184 28.9297 14.5504C29.0756 14.7786 29.277 14.9706 29.4637 15.1899C29.2886 15.2914 29.0835 15.3978 28.8935 15.5269C28.8185 15.5778 28.7152 15.6963 28.731 15.7547C28.8104 16.0483 28.6362 16.1451 28.4249 16.2441C28.2686 16.3173 28.1335 16.4434 27.9731 16.4996C27.5104 16.6619 27.3673 16.9902 27.4585 17.4455C27.4784 17.5446 27.5344 17.6729 27.613 17.718C28.6577 18.3176 29.7073 18.9089 30.7632 19.4882C30.8593 19.5409 31.032 19.5429 31.1271 19.4905C31.7603 19.1422 32.3853 18.7782 33.0036 18.4036C33.0869 18.3531 33.1462 18.2201 33.1679 18.115C33.2612 17.6624 33.0893 17.3574 32.6458 17.2085C32.5294 17.1694 32.4332 17.0715 32.3178 17.027C31.8044 16.8291 31.5364 16.5119 31.7658 15.9342C31.7693 15.9255 31.7676 15.9148 31.7697 15.9054C31.807 15.7392 31.7502 15.6348 31.592 15.559C31.406 15.47 31.2339 15.3514 31.0376 15.2348C31.3352 15.0339 31.6992 14.8603 31.5693 14.4906C31.4314 14.0978 31.0504 14.2475 30.7703 14.3119C30.7165 14.0736 30.701 13.8332 30.6042 13.6329C30.5328 13.4849 30.3394 13.2803 30.2292 13.2969C30.0832 13.3188 29.9268 13.5115 29.846 13.6682C29.7628 13.8296 29.7649 14.0359 29.7333 14.2035C29.5492 14.1569 29.3569 14.1082 29.1173 14.0631Z" fill="white"/>
  <path d="M38.7325 37.8212C37.4167 38.5857 36.1095 39.3291 34.8085 40.0837C32.0303 41.6953 29.255 43.3121 26.48 44.9295C26.331 45.0163 26.2145 45.0578 26.0378 44.9557C20.758 41.9049 15.4739 38.8618 10.1909 35.8167C9.97591 35.6928 9.76503 35.5615 9.51953 35.4141C9.7378 35.2826 9.92373 35.1655 10.1142 35.0565C14.5846 32.4986 19.0555 29.9415 23.5267 27.3849C23.6016 27.3421 23.6808 27.307 23.779 27.2715C23.7976 27.8199 23.788 28.3654 23.7966 28.9105C23.7999 29.1189 23.7197 29.343 23.9548 29.5216C24.0319 29.5802 23.981 29.8166 23.9807 29.9717C23.9802 30.2342 24.0668 30.5646 23.9422 30.7399C23.8219 30.9094 23.4826 30.924 23.2371 30.9985C22.0241 31.3662 20.9039 31.9129 19.953 32.7709C19.0805 33.5581 18.4885 34.4973 18.4752 35.7261C18.4648 36.6885 18.8262 37.5109 19.4376 38.2253C20.327 39.2642 21.4672 39.9193 22.7488 40.3188C25.8691 41.2917 28.9389 41.2149 31.9174 39.7707C32.7602 39.362 33.4836 38.7809 34.0603 38.0273C35.016 36.7785 35.123 35.3268 34.3611 33.9587C34.338 33.9172 34.3154 33.8753 34.278 33.807C34.4965 33.6799 34.7099 33.5552 34.9238 33.4315C35.7259 32.968 36.5317 32.511 37.3269 32.0359C37.4708 31.9499 37.5714 31.7902 37.7314 31.6235C39.6206 32.7011 41.5854 33.8217 43.6129 34.9782C41.9563 35.94 40.35 36.8727 38.7325 37.8212Z" fill="white"/>
  <path d="M31.8354 37.6602C30.9708 38.4542 29.9402 38.9121 28.7816 39.189C28.7372 39.1996 28.7281 39.2033 28.719 39.207C28.6539 39.2197 28.5889 39.2324 28.4904 39.2501C28.448 39.2587 28.4389 39.2623 28.4298 39.2658C26.9762 39.5182 25.5379 39.4373 24.0792 39.0517C24.0221 39.0355 23.9987 39.032 23.9753 39.0285C23.3121 38.7013 22.6246 38.4146 21.995 38.031C21.6447 37.8175 21.3474 37.4744 21.1018 37.1341C20.4282 36.2006 20.4674 35.1644 21.1667 34.2465C21.8591 33.3377 22.8179 32.8386 23.8641 32.4806C24.0645 32.412 24.174 32.4824 24.1663 32.7186C24.1549 33.0687 24.1605 33.4193 24.1612 33.7697C24.162 34.1822 24.6801 34.4784 25.0483 34.2944C25.3294 34.1539 25.4908 33.9698 25.4339 33.6333C25.4137 33.5138 25.4307 33.3878 25.4307 33.215C25.7413 33.3845 26.0156 33.5195 26.2714 33.6838C26.3387 33.727 26.3776 33.8598 26.3804 33.953C26.3916 34.3225 26.3779 34.6927 26.3838 35.0624C26.3891 35.3974 26.8857 35.6816 27.1859 35.5462C27.5106 35.3998 27.6992 35.1962 27.6309 34.8088C27.6042 34.6578 27.6255 34.4981 27.6249 34.3424C27.6218 33.5223 27.6218 33.5223 28.4304 33.165C28.4304 33.3898 28.4266 33.5967 28.4314 33.8033C28.4379 34.0844 28.9345 34.4062 29.1971 34.3099C29.6009 34.1617 29.8327 33.9124 29.7053 33.4951C30.0091 33.3141 30.2804 33.1524 30.6134 32.9539C30.8033 33.068 31.0657 33.2257 31.3512 33.3754C31.3743 33.3674 31.372 33.3721 31.372 33.3721C31.6095 33.6302 31.8671 33.8724 32.081 34.1491C32.875 35.1761 32.9251 36.0008 32.2629 37.1283C32.1888 37.2345 32.1363 37.3104 32.0692 37.3955C32.0199 37.4499 31.985 37.4951 31.9348 37.5477C31.8915 37.5901 31.8634 37.6252 31.8354 37.6602Z" fill="#65BCA3"/>
  <path d="M9.57936 17.2588C9.22907 17.5474 8.91101 17.4703 8.59469 17.2252C8.4972 17.1497 8.37874 17.1018 8.23926 17.0242C8.44052 16.9047 8.61661 16.8002 8.80608 16.6836C10.554 15.6817 12.2913 14.6967 14.0226 13.7011C18.2885 11.248 22.5523 8.79148 26.8126 6.32849C26.9712 6.23678 27.0704 6.27257 27.2014 6.34836C30.867 8.46844 34.5331 10.5878 38.2006 12.7045C40.3558 13.9483 42.5137 15.1875 44.7057 16.449C44.4241 16.6136 44.1668 16.7803 43.8931 16.9124C43.8258 16.9449 43.6953 16.8818 43.6104 16.8332C42.1283 15.9843 40.6492 15.1303 39.1688 14.2783C35.1879 11.9871 31.2059 9.69788 27.2284 7.40059C27.0422 7.29301 26.9119 7.30537 26.7337 7.40772C21.0211 10.6892 15.3055 13.9653 9.57936 17.2588Z" fill="#E0E0E0"/>
  <path d="M32.7152 34.5133C32.8652 34.5978 32.9863 34.562 33.1301 34.4659C33.4151 34.2755 33.7207 34.1167 34.084 33.9066C34.2437 34.2912 34.3927 34.6498 34.5498 35.0423C34.562 35.0853 34.5661 35.0945 34.5702 35.1038C34.5772 35.5012 34.5842 35.8986 34.5816 36.3349C34.5709 36.3984 34.5698 36.4231 34.5688 36.4478C34.1097 38.082 32.9233 39.0306 31.4883 39.7103C29.7269 40.5446 27.8516 40.7992 25.9227 40.6856C25.4343 40.6569 24.9488 40.5773 24.4237 40.5107C24.3448 40.4965 24.3042 40.4928 24.2637 40.489C23.2343 40.2633 22.2348 39.9552 21.3099 39.4295C20.6742 39.0682 20.1064 38.6255 19.6244 38.0702C18.4508 36.7182 18.3998 34.9926 19.5142 33.5916C20.3547 32.5348 21.4753 31.8853 22.7155 31.4282C23.0763 31.2952 23.4506 31.1994 23.8533 31.0783C23.8967 31.0658 23.9056 31.0613 23.9145 31.0569C23.9352 31.3753 23.956 31.6937 23.9768 32.0533C23.9794 32.104 23.9818 32.1135 23.9842 32.1231C23.8775 32.1795 23.776 32.2515 23.6632 32.2897C22.8928 32.5512 22.1849 32.9268 21.5649 33.4601C21.0439 33.9083 20.6511 34.4479 20.4508 35.1559C20.4461 35.201 20.4478 35.211 20.4494 35.221C20.2435 36.0975 20.5181 36.8489 21.0643 37.5132C21.7617 38.3613 22.6931 38.8457 23.7091 39.187C23.7637 39.2054 23.8189 39.2215 23.9087 39.246C23.9535 39.2521 23.9634 39.2509 23.9734 39.2496C24.0945 39.2876 24.2155 39.3255 24.3715 39.369C24.4163 39.373 24.4263 39.3714 24.4363 39.3698C24.4823 39.3863 24.5282 39.4028 24.6061 39.4239C24.6478 39.4267 24.6577 39.4251 24.6675 39.4235C24.7317 39.4419 24.796 39.4603 24.8938 39.4827C24.9372 39.485 24.9469 39.4832 24.9567 39.4814C25.0395 39.4998 25.1224 39.5182 25.2399 39.54C25.2843 39.5414 25.294 39.5395 25.3037 39.5375C26.2132 39.6866 27.1238 39.6872 28.0776 39.5538C28.1449 39.5431 28.17 39.537 28.1951 39.5309C28.3744 39.5001 28.5536 39.4693 28.7729 39.4325C28.8348 39.4158 28.8565 39.4051 28.8783 39.3943C28.9858 39.3715 29.0934 39.3487 29.2386 39.318C29.2977 39.2982 29.3191 39.2863 29.3405 39.2744C29.3581 39.2834 29.375 39.2823 29.4165 39.2642C29.4507 39.2524 29.4597 39.2475 29.4686 39.2426C30.3888 38.9682 31.2295 38.5466 31.9626 37.855C32.0268 37.7837 32.0658 37.7369 32.1196 37.6807C32.192 37.5952 32.2496 37.5192 32.3238 37.435C32.3861 37.3538 32.4318 37.2808 32.4774 37.2078C33.0494 36.3762 33.0886 35.4998 32.6969 34.558C32.7003 34.5291 32.7152 34.5133 32.7152 34.5133Z" fill="#F9E665"/>
  <path d="M30.0542 44.1322C28.9066 44.8025 27.7702 45.4569 26.6337 46.1111C26.5599 46.1536 26.4854 46.1948 26.3573 46.267C26.3573 45.9406 26.3428 45.6527 26.3671 45.3682C26.3736 45.293 26.4896 45.2102 26.5729 45.1615C28.38 44.1045 30.1887 43.0502 31.9989 41.9987C34.2429 40.6952 36.4885 39.3946 38.7452 38.0823C40.4433 37.0949 42.1279 36.1147 43.8187 35.1457C43.9948 35.0447 43.9859 34.911 43.9858 34.7562C43.9848 30.8606 43.9841 26.9651 43.9836 23.0696C43.9833 21.1997 43.9879 19.3298 43.9781 17.46C43.9769 17.2434 44.0385 17.1236 44.2313 17.0361C44.431 16.9455 44.6159 16.8216 44.8409 16.6931C44.8479 16.8159 44.8577 16.9067 44.8577 16.9976C44.8602 23.0844 44.861 29.1712 44.8677 35.258C44.8679 35.4546 44.8157 35.5678 44.6403 35.6692C39.7798 38.4811 34.9229 41.2992 30.0542 44.1322Z" fill="#E2E2E2"/>
  <path d="M37.9125 26.8716C38.3392 27.9447 38.7638 29.0186 39.1961 30.0894C39.2397 30.1974 39.3305 30.2859 39.3994 30.3835C39.4808 30.2954 39.5851 30.22 39.6402 30.1175C40.3981 28.7076 41.1491 27.294 41.902 25.8815C41.9552 25.7818 42.0107 25.6834 42.0952 25.5298C42.4334 26.5255 42.7492 27.4583 43.0671 28.3904C43.2708 28.9877 43.4796 29.5831 43.6812 30.1811C43.7147 30.2807 43.7397 30.3891 43.7399 30.4935C43.743 31.8464 43.741 33.1992 43.7394 34.5521C43.7393 34.5986 43.7296 34.6451 43.7194 34.7356C43.5979 34.675 43.4973 34.6307 43.4022 34.5766C41.5413 33.5157 39.6819 32.4519 37.8187 31.3952C37.6656 31.3084 37.602 31.2124 37.6037 31.0321C37.6107 30.2827 37.6013 29.5332 37.6021 28.7838C37.6022 28.71 37.6097 28.5867 37.6487 28.5702C38.0582 28.396 37.9201 28.0365 37.9225 27.739C37.924 27.5498 37.8536 27.3601 37.8155 27.1706C37.7854 27.1731 37.7554 27.1757 37.7253 27.1782C37.769 27.0927 37.8127 27.0071 37.8724 26.8988C37.8885 26.876 37.9125 26.8716 37.9125 26.8716Z" fill="#F54279"/>
  <path d="M36.1664 15.9949C36.138 15.8894 36.1096 15.7839 36.0727 15.6455C36.06 15.6036 36.0557 15.5947 36.0515 15.5857C35.7437 14.4851 35.436 13.3846 35.113 12.2295C37.115 13.3808 39.0625 14.5008 41.0254 15.6297C40.4417 16.6162 39.8664 17.5885 39.2718 18.5933C38.875 17.5977 38.4935 16.6402 38.1119 15.6827C38.0744 15.6807 38.037 15.6788 37.9996 15.6768C37.7027 16.1362 37.4059 16.5956 37.0891 17.086C36.9899 17.2493 36.9107 17.3816 36.8316 17.5139C36.7892 17.5605 36.7467 17.6071 36.6738 17.6871C36.5852 17.4037 36.5077 17.1556 36.4206 16.869C36.395 16.7963 36.3789 16.762 36.3628 16.7278C36.3458 16.6502 36.3288 16.5727 36.3035 16.4584C36.2792 16.3876 36.2631 16.3536 36.2471 16.3196C36.2301 16.2418 36.2131 16.1641 36.1878 16.054C36.1751 16.0127 36.1708 16.0038 36.1664 15.9949Z" fill="#16A3D0"/>
  <path d="M37.3661 31.1013C37.4647 31.6033 37.2351 31.8469 36.8313 32.0668C35.6214 32.7259 34.4359 33.4307 33.2403 34.1167C33.1931 34.1438 33.1403 34.161 33.054 34.1985C33.054 33.3499 33.0866 32.5348 33.0413 31.7242C33.0155 31.2611 33.1874 31.0411 33.5755 30.8331C34.6775 30.2423 35.7529 29.6009 36.8407 28.9829C36.9961 28.8946 37.162 28.8252 37.3669 28.7258C37.3669 29.5275 37.3669 30.3009 37.3661 31.1013Z" fill="#F2C685"/>
  <path d="M29.8558 25.5859C29.6733 25.4315 29.5057 25.2528 29.3052 25.1279C28.8959 24.8727 28.4698 24.6447 28.0488 24.4089C27.7223 24.226 27.3739 24.2068 27.0503 24.3784C26.5395 24.6492 26.0449 24.952 25.5499 25.2522C25.4383 25.3199 25.3534 25.4325 25.2438 25.5361C24.7595 25.2716 24.2706 25.0045 23.7388 24.7139C23.8629 24.6355 23.9551 24.5727 24.0514 24.5171C25.3215 23.7832 26.5931 23.052 27.8612 22.3145C27.9993 22.2342 28.1056 22.2188 28.2527 22.3055C28.7514 22.5994 29.2559 22.8842 29.7679 23.1537C29.9411 23.2448 30.0117 23.354 29.9845 23.5428C29.9749 23.6096 29.9923 23.6805 29.9814 23.7469C29.9043 24.2171 30.0377 24.5598 30.5638 24.7083C30.7612 24.8205 30.9249 24.9154 31.0842 25.0292C30.6717 25.2274 30.2637 25.4066 29.8558 25.5859Z" fill="#F1C683"/>
  <path d="M28.9305 27.6139C28.9496 27.8058 28.9691 27.9698 28.9968 28.2029C28.6048 28.4237 28.1532 28.6949 27.6837 28.9295C27.5781 28.9823 27.3933 28.9431 27.2736 28.8854C26.8141 28.6638 26.3676 28.4148 25.9134 28.1817C25.6812 28.0625 25.5824 27.8816 25.5887 27.6177C25.6 27.1416 25.5986 26.6651 25.5931 26.1888C25.5899 25.918 25.6991 25.7231 25.9296 25.5911C26.3394 25.3565 26.7509 25.1247 27.1567 24.8833C27.3939 24.7422 27.6178 24.7284 27.8623 24.8707C28.3761 25.1696 28.8969 25.4561 29.4679 25.7776C29.0021 25.917 28.918 26.2199 28.933 26.5948C28.9462 26.9247 28.9326 27.2556 28.9305 27.6139ZM27.9635 27.1083C27.9624 27.3028 27.9528 27.4977 27.9626 27.6916C27.9712 27.8606 28.0018 28.0284 28.0226 28.1967C28.197 28.133 28.3837 28.0907 28.5415 27.9982C28.6518 27.9335 28.7876 27.8066 28.7984 27.6962C28.8263 27.4083 28.8009 27.1134 28.7746 26.8234C28.769 26.7614 28.6375 26.6491 28.6177 26.66C28.3956 26.7816 28.1841 26.9229 27.9635 27.1083Z" fill="#65BAA2"/>
  <path d="M26.7606 33.2135C26.7542 33.3485 26.7478 33.4836 26.7398 33.6542C25.9148 33.1988 25.1081 32.7562 24.3063 32.3048C24.2565 32.2768 24.2196 32.1802 24.2192 32.1152C24.2135 31.2315 24.2154 30.3478 24.2154 29.4363C24.2939 29.4659 24.3558 29.4816 24.4105 29.5109C25.1235 29.8924 25.8331 30.2807 26.5498 30.6549C26.6996 30.7331 26.7529 30.8218 26.7501 30.9909C26.7409 31.5449 26.7493 32.0993 26.7507 32.7046C26.7539 32.9083 26.7572 33.0609 26.7606 33.2135Z" fill="#F0C584"/>
  <path d="M34.8638 25.8745C35.7554 26.3884 36.6469 26.9023 37.557 27.4269C36.9723 27.7637 36.3925 28.0969 35.8135 28.4313C34.9218 28.9462 34.0282 29.4579 33.1413 29.9813C32.9877 30.072 32.8746 30.078 32.7274 29.9764C32.5541 29.8568 32.3619 29.7649 32.1829 29.6359C32.288 29.5118 32.3883 29.4127 32.5091 29.3159C32.8142 29.4534 33.0875 29.6276 33.4205 29.4301C33.7507 29.2342 34.0977 29.0676 34.4293 28.874C34.6854 28.7244 34.6756 28.1311 34.4206 27.9798C34.1599 27.8252 33.8949 27.6781 33.6344 27.5292C33.8061 27.1515 33.8009 26.8985 33.5806 26.7405C33.4496 26.6466 33.2689 26.6236 33.1121 26.57C33.1136 26.5713 33.1165 26.5742 33.1228 26.5534C33.368 26.3309 33.6008 26.3576 33.8415 26.5374C33.9321 26.6051 34.0404 26.6586 34.1487 26.6889C34.2294 26.7115 34.3359 26.7133 34.409 26.678C34.8319 26.4737 34.8414 26.4464 34.7987 25.9347C34.7987 25.9347 34.7941 25.9318 34.8067 25.9247C34.8341 25.9032 34.849 25.8889 34.8638 25.8745Z" fill="#F0C482"/>
  <path d="M29.5799 31.1144C29.2097 31.3191 28.8466 31.5387 28.4667 31.7229C28.248 31.8289 28.0058 31.8947 27.7674 31.9468C27.5951 31.9845 27.5108 31.8914 27.5174 31.6954C27.5299 31.3261 27.5074 30.9554 27.5221 30.5862C27.5298 30.3929 27.4618 30.2774 27.2984 30.192C26.9822 30.0267 26.6795 29.8319 26.3544 29.6882C26.0752 29.5647 25.9536 29.3902 26.0101 29.0869C26.0257 29.0031 26.02 28.9153 26.0266 28.7759C26.3229 28.9313 26.5993 29.0579 26.8572 29.2156C27.3283 29.5038 27.7883 29.5032 28.2377 29.1888C28.402 29.0738 28.5348 29.0732 28.6654 29.2174C28.9787 29.5632 29.3044 29.5417 29.6511 29.2691C29.741 29.1984 29.8504 29.1519 29.9535 29.0997C30.1329 29.0089 30.2936 29.0284 30.4007 29.2124C30.5033 29.3886 30.5227 29.5837 30.3404 29.7088C29.983 29.954 29.6184 30.1928 29.2356 30.3928C29.1297 30.4481 28.9329 30.39 28.8063 30.3262C28.6013 30.223 28.4238 30.0652 28.2257 29.9458C28.1676 29.9107 28.0788 29.9275 28.0041 29.9206C28.0327 29.9993 28.0426 30.0953 28.0945 30.1524C28.164 30.2289 28.28 30.2621 28.3505 30.3381C28.4344 30.4286 28.5136 30.5366 28.5545 30.6517C28.608 30.8019 28.6467 30.8905 28.8067 30.7531C28.8557 30.7109 28.9325 30.6982 28.9987 30.6806C29.2088 30.6249 29.4286 30.5954 29.6282 30.5144C29.8624 30.4193 30.0462 30.497 30.0521 30.7622C30.0655 31.3653 30.0677 31.9693 30.0471 32.572C30.0433 32.6855 29.9125 32.7946 29.8403 32.9057C29.7986 32.8917 29.7568 32.8778 29.715 32.8638C29.7403 32.681 29.778 32.499 29.7882 32.3153C29.8057 32.0003 29.9441 31.6647 29.6543 31.39C29.6318 31.3687 29.6647 31.2877 29.6886 31.2014C29.6635 31.1504 29.6217 31.1324 29.5799 31.1144Z" fill="#63B9A0"/>
  <path d="M34.7752 25.9238C34.8414 26.4461 34.8319 26.4734 34.409 26.6778C34.3359 26.7131 34.2294 26.7112 34.1487 26.6886C34.0404 26.6583 33.9321 26.6048 33.8415 26.5371C33.6008 26.3573 33.368 26.3306 33.1071 26.5516C33.0696 26.5802 33.0541 26.5896 33.0386 26.599C33.0518 26.6051 33.0717 26.6198 33.0769 26.6156C33.0914 26.6041 33.0997 26.5847 33.1105 26.5684C33.2689 26.6233 33.4496 26.6463 33.5806 26.7402C33.8009 26.8982 33.8061 27.1512 33.6344 27.5289C33.8949 27.6778 34.1599 27.8249 34.4206 27.9795C34.6756 28.1308 34.6854 28.7241 34.4293 28.8737C34.0977 29.0673 33.7507 29.2339 33.4205 29.4298C33.0875 29.6273 32.8142 29.4531 32.4967 29.2993C32.3784 29.237 32.2949 29.1887 32.2071 29.1507C31.9915 29.0575 31.8342 28.9423 31.8527 28.6593C31.8711 28.3766 31.8875 28.1294 32.1952 27.9915C32.454 27.8756 32.6908 27.7097 32.8838 27.5972C32.8328 27.3853 32.7652 27.2237 32.7634 27.0614C32.7617 26.9128 32.7274 26.8459 32.592 26.7797C32.1006 26.5393 31.6177 26.281 31.1338 26.0252C30.9006 25.9019 30.8919 25.7793 31.1062 25.619C31.256 25.507 31.4155 25.4084 31.6064 25.2797C31.407 25.1759 31.2479 25.093 31.0887 25.0101C30.925 24.9152 30.7612 24.8203 30.584 24.7107C30.6165 24.654 30.6625 24.6118 30.7477 24.5667C31.9133 25.1903 33.0397 25.8171 34.1838 26.4536C34.1957 26.334 34.2043 26.2483 34.2128 26.1626C34.2673 26.16 34.3218 26.1574 34.4001 26.1814C34.4365 26.2639 34.4491 26.3198 34.4617 26.3758C34.4875 26.3762 34.5134 26.3766 34.5393 26.377C34.5609 26.2085 34.5826 26.04 34.6042 25.8715C34.6534 25.8854 34.7026 25.8992 34.7752 25.9238ZM33.5556 28.569C33.7816 28.4368 34.0076 28.3046 34.2506 28.1624C33.8004 27.8119 33.4791 27.9316 33.4088 28.3705C33.1356 28.4706 32.8922 28.5597 32.6419 28.6514C32.9508 28.8429 32.9956 28.8395 33.5556 28.569ZM31.8567 26.1185C32.2666 26.3244 32.6621 26.7163 33.1264 26.2191C33.1367 26.2081 33.1426 26.1927 33.1572 26.1681C33.0163 26.0873 32.8776 26.0077 32.7322 25.9243C32.6738 26.3113 32.5805 26.3668 32.2602 26.2062C31.9799 26.0656 31.6617 25.9494 31.7633 25.4945C31.5596 25.6118 31.4164 25.6943 31.2455 25.7928C31.463 25.9103 31.6402 26.0061 31.8567 26.1185ZM34.2372 28.4323C33.9419 28.5901 33.6495 28.7539 33.3502 28.9034C33.1991 28.9789 33.1297 29.0659 33.2275 29.2596C33.5921 29.064 33.9488 28.8821 34.2954 28.682C34.4382 28.5996 34.4221 28.5078 34.2372 28.4323ZM33.4258 26.9199C33.2791 26.8128 33.12 26.8002 33.0342 26.9684C32.9896 27.056 33.0058 27.2353 33.0685 27.3014C33.1295 27.3657 33.3049 27.3824 33.3951 27.3415C33.5682 27.2629 33.5696 27.106 33.4258 26.9199ZM32.402 28.7872C32.3055 28.7357 32.2091 28.6841 32.0983 28.6249C32.1283 28.8633 32.5574 29.1451 33.0027 29.2022C32.9696 29.1189 32.9251 29.0356 32.8561 28.9954C32.7251 28.9191 32.58 28.8676 32.402 28.7872ZM32.2135 25.9305C32.2912 25.9714 32.3689 26.0124 32.4586 26.0597C32.5303 25.6521 32.2169 25.6611 32.0373 25.5389C32.0097 25.5609 31.9821 25.5829 31.9546 25.605C32.0281 25.7056 32.1017 25.8062 32.2135 25.9305Z" fill="#0B0B0B"/>
  <path d="M31.0841 25.0283C31.2478 25.0923 31.4069 25.1752 31.6063 25.279C31.4154 25.4077 31.2559 25.5063 31.1062 25.6183C30.8918 25.7786 30.9005 25.9012 31.1338 26.0245C31.6176 26.2803 32.1005 26.5386 32.5919 26.779C32.7273 26.8452 32.7616 26.9121 32.7633 27.0607C32.7651 27.223 32.8327 27.3845 32.8837 27.5965C32.6908 27.709 32.4539 27.8749 32.1951 27.9908C31.8874 28.1287 31.871 28.3758 31.8526 28.6586C31.8341 28.9416 31.9914 29.0568 32.207 29.15C32.2948 29.188 32.3783 29.2363 32.4761 29.2963C32.3882 29.4117 32.2879 29.5108 32.1681 29.6198C31.3373 29.189 30.5262 28.7483 29.739 28.3207C29.8365 28.0728 29.9299 27.8352 30.0363 27.5646C30.3072 27.7086 30.6093 27.8482 30.8885 28.0248C31.0699 28.1396 31.211 28.1356 31.3844 28.0242C31.6109 27.8786 31.8458 27.7441 32.0866 27.6243C32.2472 27.5443 32.3214 27.4356 32.3033 27.2149C32.2883 27.1212 32.2709 27.0711 32.2535 27.021C31.6829 26.6948 31.111 26.3707 30.5421 26.0413C30.3131 25.9087 30.0906 25.7647 29.8604 25.6054C30.2637 25.4057 30.6716 25.2265 31.0841 25.0283Z" fill="#ECC07C"/>
  <path d="M33.0017 30.6011C33.051 30.4649 33.0693 30.2995 33.1539 30.25C34.6111 29.3981 36.0764 28.5604 37.5406 27.7208C37.5793 27.6987 37.6258 27.6904 37.6717 27.6746C37.7441 28.214 37.7442 28.214 37.3093 28.4627C35.9311 29.2506 34.553 30.0386 33.1744 30.8257C33.1344 30.8485 33.0886 30.861 33.0191 30.889C33.0125 30.7895 33.0071 30.7076 33.0017 30.6011Z" fill="#EEC181"/>
  <path d="M31.3849 33.1598C31.168 33.0202 30.9495 32.8832 30.7352 32.7396C30.6672 32.694 30.558 32.632 30.557 32.5758C30.55 32.1769 30.5661 31.7776 30.6114 31.3875C30.8147 31.4597 30.9814 31.5228 31.1482 31.586C31.4205 31.7265 31.698 31.858 31.962 32.0131C32.0364 32.0568 32.1142 32.1683 32.1167 32.251C32.1312 32.7331 32.1238 33.2159 32.1238 33.7514C31.9493 33.6016 31.8082 33.4805 31.6399 33.3362C31.5367 33.2619 31.4608 33.2108 31.3849 33.1598Z" fill="#F4E364"/>
  <path d="M34.2069 26.1354C34.2042 26.2479 34.1956 26.3336 34.1837 26.4533C33.0396 25.8167 31.9132 25.19 30.7697 24.5573C30.269 24.4016 30.1706 24.0593 30.1957 23.5813C30.2346 22.8395 30.2034 22.0939 30.2119 21.3145C30.3064 21.316 30.3941 21.3469 30.4748 21.3908C31.5046 21.9499 32.5333 22.5109 33.5623 23.0715C33.5681 23.0792 33.5723 23.0918 33.5797 23.094C34.1497 23.2661 34.2603 23.6731 34.2184 24.2245C34.1709 24.8492 34.2034 25.4802 34.2069 26.1354ZM31.4781 24.8075C32.3121 25.2738 33.1462 25.74 34.0298 26.2339C34.0412 26.0549 34.0514 25.9695 34.0514 25.884C34.0516 25.1733 34.0413 24.4625 34.0542 23.7521C34.0578 23.5542 33.9832 23.4557 33.8225 23.3695C32.7777 22.8086 31.7369 22.2401 30.6933 21.677C30.5972 21.6251 30.4906 21.5932 30.385 21.5504C30.3597 21.6102 30.3395 21.6357 30.3395 21.6612C30.3372 22.4497 30.332 23.2382 30.3438 24.0265C30.345 24.1059 30.4348 24.2108 30.5112 24.2575C30.8154 24.4433 31.1307 24.6107 31.4781 24.8075Z" fill="#D3D3D5"/>
  <path d="M33.5801 23.0639C32.5332 22.5114 31.5044 21.9504 30.4747 21.3912C30.3939 21.3474 30.3062 21.3165 30.2072 21.2926C30.1825 21.2071 30.1724 21.1084 30.1614 20.9804C30.4151 20.7436 30.6431 20.7189 30.9571 20.904C32.0021 21.5199 33.0725 22.0915 34.1445 22.6967C34.1033 22.7508 34.0507 22.7882 33.9604 22.8295C32.8704 22.2486 31.8192 21.6622 30.7644 21.0828C30.6813 21.0371 30.5725 21.0394 30.4756 21.0194C30.4697 21.0491 30.4638 21.0789 30.458 21.1086C30.5495 21.1585 30.6415 21.2076 30.7326 21.2583C31.7416 21.8203 32.7505 22.3825 33.7594 22.9447C33.7056 22.9817 33.6519 23.0188 33.5801 23.0639Z" fill="#0B0B0B"/>
  <path d="M30.8591 31.2439C30.6262 31.1613 30.5012 31.0332 30.5066 30.7458C30.5102 30.5505 30.3786 30.3526 30.2969 30.1266C30.4304 29.9229 30.6101 29.9341 30.8462 30.0856C31.1943 30.3089 31.5608 30.504 31.9266 30.6975C32.0735 30.7753 32.1349 30.8689 32.1247 31.0386C32.1104 31.2777 32.1211 31.5183 32.1211 31.7916C31.8332 31.6579 31.5755 31.5382 31.2834 31.4014C31.119 31.3375 30.9891 31.2907 30.8591 31.2439Z" fill="#DDDEDE"/>
  <path d="M26.9756 32.7077C26.9794 32.1341 26.9922 31.5602 26.9823 30.9868C26.9786 30.7696 27.0627 30.6658 27.2791 30.6255C27.2791 31.3154 27.2786 31.9953 27.2793 32.6752C27.2796 33.0217 27.3485 33.065 27.6471 32.8932C28.2805 32.5287 28.911 32.1592 29.546 31.7899C29.6621 32.0781 29.5268 32.2066 29.297 32.3348C28.6157 32.7149 27.9486 33.121 27.275 33.5153C27.1949 33.5622 27.109 33.5991 26.9865 33.6603C26.9865 33.5093 26.9865 33.3961 26.987 33.2327C26.9835 33.0242 26.9796 32.866 26.9756 32.7077Z" fill="#E9C383"/>
  <path d="M32.7125 34.2485C32.39 34.1511 32.3364 33.9226 32.3442 33.6074C32.3658 32.735 32.3517 31.8617 32.3517 30.9836C32.7946 31.114 32.8239 31.1505 32.824 31.5667C32.8243 32.4399 32.8239 33.3131 32.8075 34.2239C32.765 34.2572 32.7387 34.2528 32.7125 34.2485Z" fill="#EDC485"/>
  <path d="M30.3757 27.1138C29.9093 26.8602 29.9093 26.8602 29.9726 26.0049C30.6104 26.3605 31.2264 26.704 31.8964 27.0776C31.6394 27.2304 31.4192 27.3715 31.1879 27.4907C31.1373 27.5168 31.0403 27.479 30.9767 27.4464C30.7795 27.3453 30.5882 27.2326 30.3757 27.1138Z" fill="#67B8A3"/>
  <path d="M24.024 27.1827C24.0226 27.0932 24.0261 27.0307 24.0248 26.9451C24.02 26.6544 24.02 26.3868 24.02 26.1074C24.5041 26.2758 24.5061 26.2758 24.5069 26.7117C24.508 27.2644 24.4755 27.8194 24.5145 28.3693C24.5427 28.7659 24.433 29.0122 24.0288 29.1184C24.0288 28.4814 24.0288 27.8456 24.024 27.1827Z" fill="#EFC483"/>
  <path d="M30.768 29.1465C31.296 29.442 31.8114 29.7645 32.3562 30.0238C32.7379 30.2055 32.8995 30.4438 32.7738 30.8905C32.1009 30.5175 31.426 30.1434 30.7678 29.7786C30.7678 29.5797 30.7678 29.4004 30.7661 29.1928C30.7644 29.1646 30.768 29.1465 30.768 29.1465Z" fill="#E9C07F"/>
  <path d="M24.7345 28.3755C24.7346 27.739 24.7346 27.1307 24.7346 26.5029C25.0007 26.5568 25.1381 26.6715 25.1112 26.9545C25.0892 27.1852 25.1028 27.4196 25.1068 27.6523C25.1122 27.9674 25.212 28.2428 25.4639 28.4442C25.5773 28.5348 25.7505 28.6488 25.6173 28.7812C25.4939 28.9039 25.2711 28.9986 25.102 28.9845C24.7829 28.9578 24.6699 28.7192 24.7345 28.3755Z" fill="#E3BB7D"/>
  <path d="M24.6804 25.5073C25.1554 25.7717 25.1554 25.7717 25.096 26.379C24.8501 26.2448 24.62 26.1195 24.3901 25.9937C24.2638 25.9245 24.1382 25.8541 24.0118 25.7853C23.5569 25.5374 23.5568 25.5376 23.648 24.9473C23.991 25.1336 24.3261 25.3156 24.6804 25.5073Z" fill="#EABE7B"/>
  <path d="M25.7133 29.6063C26.1864 29.8637 26.6399 30.1125 27.0934 30.3612C27.0928 30.3901 27.0922 30.419 27.0917 30.4478C26.967 30.4553 26.8177 30.5119 26.7217 30.4626C25.9593 30.0709 25.2071 29.659 24.4338 29.2438C24.5586 29.0786 24.6804 29.049 24.8524 29.1483C25.1276 29.3073 25.4127 29.4488 25.7133 29.6063Z" fill="#E3B778"/>
  <path d="M33.7798 22.9472C32.7508 22.3824 31.7419 21.8202 30.7329 21.2582C30.6418 21.2075 30.5498 21.1583 30.4583 21.1085C30.4641 21.0787 30.47 21.049 30.4759 21.0193C30.5728 21.0393 30.6816 21.037 30.7647 21.0826C31.8195 21.6621 32.8707 22.2485 33.9424 22.8368C34.1236 22.9398 34.2852 23.0391 34.4826 23.1604C34.1669 23.2876 34.0196 22.9966 33.7798 22.9472Z" fill="#D7D7D8"/>
  <path d="M34.5978 25.8483C34.5828 26.0394 34.5611 26.208 34.5394 26.3765C34.5136 26.376 34.4877 26.3756 34.4619 26.3752C34.4493 26.3193 34.4367 26.2633 34.417 26.185C34.4238 25.2455 34.4377 24.3285 34.4516 23.4114C34.4981 23.4122 34.5446 23.413 34.5912 23.4137C34.5912 24.2177 34.5912 25.0217 34.5978 25.8483Z" fill="#D9DADB"/>
  <path d="M29.3421 27.9117C29.2764 27.8486 29.1995 27.7776 29.1978 27.7048C29.1885 27.2892 29.195 26.873 29.2005 26.4571C29.2028 26.2833 29.2459 26.1336 29.4662 26.1152C29.4662 26.6718 29.4686 27.219 29.4618 27.7661C29.4612 27.8122 29.3991 27.8574 29.3421 27.9117Z" fill="#E8E9EB"/>
  <path d="M27.384 34.8528C27.3405 35.0149 27.297 35.1501 27.2535 35.2853C27.2118 35.2774 27.17 35.2695 27.1283 35.2616C27.1283 34.8228 27.1215 34.3838 27.1342 33.9453C27.1367 33.861 27.2162 33.7791 27.2602 33.696C27.3015 33.7224 27.3427 33.7488 27.384 33.7752C27.384 34.1254 27.384 34.4756 27.384 34.8528Z" fill="#DAB77D"/>
  <path d="M29.2772 33.9831C29.2357 33.561 29.2094 33.1326 29.209 32.7042C29.2089 32.6482 29.3416 32.5921 29.4659 32.4944C29.4659 32.959 29.4741 33.3605 29.4584 33.7611C29.4555 33.835 29.3556 33.905 29.2772 33.9831Z" fill="#D6B276"/>
  <path d="M24.6707 33.5778C24.6707 33.7409 24.6707 33.8763 24.6707 34.0116C24.6494 34.0272 24.6282 34.0429 24.607 34.0585C24.5364 33.9698 24.4108 33.8849 24.4047 33.792C24.3809 33.4287 24.395 33.063 24.395 32.6379C24.848 32.885 24.5976 33.2642 24.6707 33.5778Z" fill="#DAB47B"/>
  <path d="M28.9067 32.8784C28.9317 33.2507 28.9317 33.6146 28.9317 33.9786C28.9028 33.9926 28.8738 34.0067 28.8449 34.0208C28.7848 33.9061 28.6951 33.797 28.6721 33.6751C28.6422 33.516 28.6784 33.3454 28.6619 33.1822C28.6436 33.0018 28.7175 32.9087 28.9067 32.8784Z" fill="#DAB377"/>
  <path d="M26.6951 35.2021C26.6519 34.7772 26.6292 34.3673 26.6064 33.9574C26.6329 33.9406 26.6593 33.9238 26.6857 33.907C26.7477 33.9742 26.8602 34.0391 26.8634 34.1092C26.881 34.4919 26.8718 34.8759 26.8718 35.2834C26.8007 35.2532 26.7582 35.2351 26.6951 35.2021Z" fill="#EEC388"/>
  <path d="M25.0354 32.9873C25.333 33.1841 25.1376 33.4624 25.1883 33.6923C25.2324 33.892 25.1199 33.9929 24.914 34.0448C24.914 33.7042 24.9116 33.378 24.9183 33.0521C24.9189 33.0257 24.9812 33.0007 25.0354 32.9873Z" fill="#D8B078"/>
  <path d="M29.7694 28.8709C29.6281 28.8832 29.4955 28.9147 29.3862 28.877C29.3217 28.8548 29.2942 28.7231 29.25 28.6407C29.3634 28.5998 29.4844 28.5125 29.5883 28.5298C29.7198 28.5518 29.8374 28.659 29.9956 28.7492C29.9092 28.7957 29.8485 28.8284 29.7694 28.8709Z" fill="#E7BB71"/>
  <path d="M27.5789 32.6328C27.5486 32.4937 27.5417 32.3622 27.5352 32.2363C27.8065 32.2194 28.0455 32.2046 28.3717 32.1843C28.0689 32.3638 27.8356 32.5021 27.5789 32.6328Z" fill="#EDC07C"/>
  <path d="M26.9539 32.7075C26.9794 32.8657 26.9834 33.0239 26.9821 33.2081C26.9225 33.231 26.8681 33.228 26.787 33.2191C26.7569 33.0607 26.7536 32.9082 26.7552 32.7315C26.8176 32.7074 26.875 32.7075 26.9539 32.7075Z" fill="#0F0E0D"/>
  <path d="M30.8296 27.7249C30.5327 27.5684 30.2357 27.412 29.9387 27.2555C29.9546 27.2254 29.9704 27.1953 29.9863 27.1653C30.2745 27.3213 30.5626 27.4773 30.8506 27.6638C30.8435 27.7045 30.8365 27.7147 30.8296 27.7249Z" fill="#B9BCC0"/>
  <path d="M36.8506 17.5174C36.9106 17.382 36.9898 17.2497 37.0847 17.106C37.142 17.1416 37.1834 17.1887 37.2327 17.2583C37.1714 17.3984 37.1023 17.516 37.0167 17.644C36.9566 17.6098 36.9132 17.5651 36.8506 17.5174Z" fill="#0F0E0D"/>
  <path d="M30.8546 31.2661C30.989 31.2915 31.1189 31.3383 31.2623 31.4008C31.2349 31.4607 31.1939 31.5049 31.1505 31.568C30.9813 31.5236 30.8146 31.4605 30.6335 31.3822C30.6963 31.3406 30.7733 31.314 30.8546 31.2661Z" fill="#0F0E0D"/>
  <path d="M32.462 37.1914C32.4324 37.2809 32.3867 37.3539 32.3051 37.4332C32.2073 37.4217 32.1455 37.4039 32.0837 37.3862C32.1363 37.3103 32.1889 37.2345 32.2541 37.1477C32.3266 37.1495 32.3863 37.1622 32.462 37.1914Z" fill="#0F0E0D"/>
  <path d="M31.6352 27.6151C31.591 27.606 31.5679 27.5859 31.5449 27.5658C31.6604 27.4994 31.7759 27.4329 31.8914 27.3665C31.9032 27.3877 31.915 27.4088 31.9269 27.43C31.8367 27.4881 31.7466 27.5461 31.6352 27.6151Z" fill="#ADBBBE"/>
  <path d="M29.0229 31.7883C28.9319 31.8578 28.8381 31.9112 28.7443 31.9645C28.7315 31.9397 28.7186 31.915 28.7058 31.8902C28.8106 31.8509 28.9153 31.8116 29.0229 31.7883Z" fill="#0F0E0D"/>
  <path d="M32.1049 37.6901C32.066 37.7369 32.027 37.7836 31.971 37.837C31.9191 37.7939 31.8841 37.744 31.842 37.6771C31.863 37.625 31.8911 37.59 31.9398 37.5708C32.0087 37.6212 32.0568 37.6556 32.1049 37.6901Z" fill="#0F0E0D"/>
  <path d="M25.4861 29.2598C25.4949 29.2083 25.5192 29.1658 25.5435 29.1233C25.5731 29.165 25.6027 29.2066 25.6323 29.2483C25.5888 29.2551 25.5452 29.2619 25.4861 29.2598Z" fill="#0F0E0D"/>
  <path d="M31.4028 27.7479C31.3351 27.772 31.2875 27.787 31.24 27.8021C31.2325 27.7855 31.225 27.7689 31.2175 27.7523C31.3048 27.6998 31.3921 27.6474 31.4793 27.595C31.4915 27.6097 31.5037 27.6244 31.5159 27.6391C31.485 27.6723 31.454 27.7056 31.4028 27.7479Z" fill="#ADBBBE"/>
  <path d="M31.3831 33.1858C31.4608 33.2109 31.5368 33.262 31.6227 33.3304C31.5626 33.351 31.4925 33.3542 31.3971 33.3644C31.3719 33.3714 31.3742 33.3667 31.3718 33.3675C31.3734 33.3161 31.3773 33.2639 31.3831 33.1858Z" fill="#0F0E0D"/>
  <path d="M28.8345 28.8977C28.8871 28.9491 28.9383 29.0179 28.9895 29.0867C28.9649 29.1005 28.9404 29.1143 28.9158 29.1281C28.8882 29.0571 28.8606 28.9861 28.8345 28.8977Z" fill="#0F0E0D"/>
  <path d="M29.1294 31.6793C29.1755 31.6332 29.2201 31.6024 29.2648 31.5715C29.2766 31.5979 29.2884 31.6242 29.3003 31.6505C29.2428 31.6652 29.1854 31.6799 29.1294 31.6793Z" fill="#0F0E0D"/>
  <path d="M39.3669 29.9063C39.3923 29.9036 39.4172 29.9186 39.4619 29.9243C39.4633 29.9416 39.445 29.9684 39.4267 29.9951C39.4067 29.9714 39.3866 29.9478 39.3669 29.9063Z" fill="#0F0E0D"/>
  <path d="M29.5933 31.1349C29.6218 31.1332 29.6636 31.1512 29.6974 31.1836C29.6618 31.1835 29.6342 31.169 29.5933 31.1349Z" fill="#0F0E0D"/>
  <path d="M29.3862 31.561C29.3927 31.5356 29.4086 31.5202 29.4246 31.5049C29.4309 31.5116 29.443 31.5238 29.4427 31.5242C29.4277 31.5405 29.4116 31.5557 29.3862 31.561Z" fill="#0F0E0D"/>
  <path d="M28.4684 32.061C28.4703 32.0926 28.4628 32.1151 28.4554 32.1376C28.4492 32.1315 28.4368 32.124 28.4378 32.1196C28.443 32.0966 28.4516 32.0744 28.4684 32.061Z" fill="#0F0E0D"/>
  <path d="M32.2522 27.0415C32.2713 27.0711 32.2887 27.1212 32.3 27.1919C32.2794 27.1623 32.2649 27.1122 32.2522 27.0415Z" fill="#0F0E0D"/>
  <path d="M31.9976 27.3944C31.9842 27.3699 31.989 27.3392 32.0003 27.3111C32.0027 27.305 32.0282 27.3084 32.0431 27.3075C32.0348 27.3347 32.0264 27.3619 31.9976 27.3944Z" fill="#ADBBBE"/>
  <path d="M28.551 32.0233C28.5677 32.0185 28.5894 32.0235 28.5947 32.0358C28.5987 32.0449 28.5816 32.0634 28.5739 32.0777C28.5656 32.0639 28.5572 32.05 28.551 32.0233Z" fill="#0F0E0D"/>
  <path d="M36.2456 16.3394C36.2634 16.3536 36.2795 16.3876 36.2941 16.4409C36.2764 16.4265 36.2601 16.3928 36.2456 16.3394Z" fill="#0F0E0D"/>
  <path d="M32.7224 34.2582C32.7389 34.2526 32.7651 34.257 32.809 34.252C32.7952 34.2512 32.7637 34.2597 32.7224 34.2582Z" fill="#0F0E0D"/>
  <path d="M28.1854 39.52C28.1703 39.5365 28.1452 39.5426 28.1008 39.5454C28.1129 39.5313 28.1441 39.5204 28.1854 39.52Z" fill="#0F0E0D"/>
  <path d="M24.2798 40.5032C24.305 40.4929 24.3456 40.4967 24.4018 40.5142C24.3766 40.5244 24.3359 40.5209 24.2798 40.5032Z" fill="#0F0E0D"/>
  <path d="M36.3608 16.7473C36.3787 16.7616 36.3947 16.7959 36.4097 16.8495C36.392 16.8349 36.3756 16.8011 36.3608 16.7473Z" fill="#0F0E0D"/>
  <path d="M37.9081 26.8604C37.9126 26.8708 37.8887 26.8752 37.8767 26.8776C37.8777 26.87 37.8906 26.86 37.9081 26.8604Z" fill="#0F0E0D"/>
  <path d="M25.2993 39.5289C25.2945 39.5392 25.2848 39.5411 25.2615 39.5372C25.2606 39.511 25.2761 39.5074 25.2993 39.5289Z" fill="#0F0E0D"/>
  <path d="M24.952 39.4724C24.9469 39.4828 24.9372 39.4846 24.9138 39.4803C24.9159 39.4707 24.9316 39.4672 24.952 39.4724Z" fill="#0F0E0D"/>
  <path d="M28.8603 39.3909C28.8573 39.4053 28.8355 39.416 28.7952 39.4244C28.7983 39.4104 28.82 39.3988 28.8603 39.3909Z" fill="#0F0E0D"/>
  <path d="M24.6634 39.4151C24.6581 39.4255 24.6483 39.4271 24.625 39.4223C24.6272 39.4127 24.643 39.4095 24.6634 39.4151Z" fill="#0F0E0D"/>
  <path d="M24.4324 39.3599C24.4268 39.3709 24.4168 39.3725 24.3933 39.3673C24.3958 39.3572 24.412 39.3539 24.4324 39.3599Z" fill="#0F0E0D"/>
  <path d="M29.322 39.2715C29.3195 39.2858 29.2981 39.2977 29.2578 39.308C29.2603 39.294 29.2817 39.2815 29.322 39.2715Z" fill="#0F0E0D"/>
  <path d="M28.4358 39.273C28.4387 39.2618 28.4478 39.2582 28.4714 39.2566C28.4713 39.2659 28.4566 39.2732 28.4358 39.273Z" fill="#0F0E0D"/>
  <path d="M29.4623 39.2351C29.46 39.2477 29.4511 39.2526 29.427 39.2559C29.4264 39.2453 29.441 39.2364 29.4623 39.2351Z" fill="#0F0E0D"/>
  <path d="M28.7251 39.2144C28.7279 39.203 28.737 39.1993 28.7607 39.1973C28.7607 39.2066 28.746 39.2144 28.7251 39.2144Z" fill="#0F0E0D"/>
  <path d="M23.9693 39.2404C23.9636 39.2507 23.9537 39.2519 23.9304 39.246C23.9331 39.2364 23.949 39.2339 23.9693 39.2404Z" fill="#0F0E0D"/>
  <path d="M23.9875 39.0407C23.9984 39.0317 24.0218 39.0352 24.0569 39.0526C24.0458 39.0621 24.0229 39.0577 23.9875 39.0407Z" fill="#0F0E0D"/>
  <path d="M34.8478 25.8782C34.8491 25.8882 34.8342 25.9025 34.8074 25.9267C34.8075 25.9185 34.8196 25.9005 34.8478 25.8782Z" fill="#0F0E0D"/>
  <path d="M23.909 31.0493C23.9065 31.0611 23.8977 31.0656 23.874 31.0681C23.8737 31.0581 23.8881 31.05 23.909 31.0493Z" fill="#0F0E0D"/>
  <path d="M23.9935 32.1179C23.9827 32.1136 23.9802 32.104 23.9824 32.0804C24.0086 32.0778 24.0135 32.0932 23.9935 32.1179Z" fill="#0F0E0D"/>
  <path d="M34.5814 36.4335C34.5699 36.4231 34.571 36.3984 34.5846 36.3594C34.596 36.3698 34.595 36.3945 34.5814 36.4335Z" fill="#0F0E0D"/>
  <path d="M28.3439 32.0981C28.34 32.1006 28.3478 32.0957 28.3439 32.0981V32.0981Z" fill="#0F0E0D"/>
  <path d="M20.4583 35.216C20.4479 35.2107 20.4462 35.2007 20.4511 35.1771C20.4645 35.174 20.4725 35.184 20.4773 35.1955C20.4787 35.1987 20.4707 35.206 20.4583 35.216Z" fill="#0F0E0D"/>
  <path d="M34.5792 35.0974C34.5669 35.0945 34.5627 35.0853 34.5608 35.061C34.5712 35.061 34.5792 35.0761 34.5792 35.0974Z" fill="#0F0E0D"/>
  <path d="M32.6933 34.5363C32.6794 34.5244 32.6731 34.5048 32.6667 34.4852C32.68 34.4849 32.6933 34.4846 32.7111 34.4985C32.7156 34.5127 32.7008 34.5285 32.6933 34.5363Z" fill="#F9E665"/>
  <path d="M36.0444 15.5925C36.0563 15.5949 36.0607 15.6039 36.0637 15.6276C36.0539 15.628 36.0454 15.6135 36.0444 15.5925Z" fill="#0F0E0D"/>
  <path d="M36.1594 16.0015C36.1713 16.0038 36.1758 16.0127 36.1789 16.0364C36.1691 16.0369 36.1605 16.0225 36.1594 16.0015Z" fill="#0F0E0D"/>
  <path d="M30.7554 29.167C30.7463 29.1697 30.7625 29.1492 30.7654 29.1476C30.7683 29.1459 30.7645 29.1642 30.7554 29.167Z" fill="#0F0E0D"/>
  <path d="M30.8623 27.6799C30.8966 27.6726 30.9191 27.6795 30.9369 27.7093C30.9221 27.7398 30.912 27.7474 30.902 27.755C30.8837 27.7548 30.8665 27.7505 30.8399 27.7334C30.8366 27.7145 30.8435 27.7043 30.8623 27.6799Z" fill="#B9BCC0"/>
  <path d="M30.9485 27.7227C30.9505 27.7375 30.9361 27.7617 30.9119 27.7704C30.912 27.7472 30.9221 27.7396 30.9485 27.7227Z" fill="#B9BCC0"/>
  <path d="M26.0473 46.253C25.1861 45.759 24.3516 45.2573 23.5084 44.7711C18.6438 41.9662 13.7772 39.165 8.89283 36.3574C8.85132 36.3348 8.83075 36.3089 8.80481 36.301C8.15541 36.1036 8.07505 35.6425 8.0777 35.0131C8.10232 29.1636 8.09031 23.314 8.08893 17.4644C8.08892 17.409 8.08893 17.3535 8.08893 17.2456C8.38206 17.4098 8.64653 17.5416 8.88987 17.7054C8.95225 17.7474 8.97013 17.8904 8.97084 17.9872C8.97907 19.1162 8.9801 20.2453 8.9831 21.4281C8.98676 23.0223 8.99036 24.5628 8.9881 26.1283C8.98592 26.2732 8.98959 26.393 8.98806 26.5397C8.98632 27.0551 8.98979 27.5436 8.98742 28.0589C8.98251 29.8609 8.98276 31.6362 8.98657 33.4114C8.98674 33.4904 9.01925 33.5693 9.03878 33.6657C9.03922 33.7066 9.03759 33.7299 9.03596 33.7533C9.01797 33.9978 9.02387 34.2471 8.97752 34.486C8.83937 35.1981 9.17291 35.5449 9.77669 35.8885C15.1297 38.9343 20.4598 42.0212 25.8003 45.0896C26.0238 45.218 26.1559 45.3507 26.1132 45.627C26.0814 45.8328 26.0832 46.0438 26.0473 46.253Z" fill="#DFDFDF"/>
  <path d="M15.7509 31.5216C15.1029 31.8989 14.4562 32.2784 13.8067 32.6529C12.3807 33.4751 10.9535 34.295 9.52626 35.115C9.44552 35.1614 9.36041 35.2 9.21975 35.2715C9.21975 34.772 9.21975 34.3225 9.22021 33.8228C9.2171 33.7095 9.21352 33.6465 9.2142 33.5576C9.21571 33.3737 9.21295 33.2159 9.21431 33.0438C9.21565 33.0201 9.21287 33.0107 9.21428 32.9741C9.21943 31.6366 9.22535 30.3262 9.21785 29.0159C9.21599 28.6924 9.22545 28.3794 9.39003 28.0914C9.72248 27.4141 10.0549 26.7368 10.4108 26.0117C10.5839 26.3592 10.7379 26.6664 10.8902 26.9744C11.4657 28.138 12.0386 29.3029 12.6192 30.4639C12.6708 30.5669 12.7714 30.6449 12.8493 30.7346C12.9283 30.6443 13.0256 30.5645 13.0834 30.462C13.401 29.8982 13.709 29.3289 14.0392 28.727C14.6088 29.6606 15.1566 30.5586 15.7215 31.4813C15.7385 31.5061 15.7509 31.5216 15.7509 31.5216Z" fill="#63BDA4"/>
  <path d="M9.21023 33.0578C9.21299 33.2157 9.21575 33.3735 9.19576 33.5598C9.12765 33.6084 9.08229 33.6285 9.03692 33.6487C9.01948 33.5697 8.98696 33.4908 8.9868 33.4118C8.98299 31.6366 8.98274 29.8614 9.00586 28.0566C9.09221 27.9706 9.15452 27.9143 9.21813 27.8586C9.21943 27.8594 9.22177 27.8613 9.22177 27.8613C9.26553 27.9356 9.30929 28.01 9.37156 28.0878C9.2255 28.3792 9.21604 28.6922 9.21789 29.0157C9.22539 30.326 9.21948 31.6364 9.20648 32.9793C9.18409 33.0316 9.18936 33.0469 9.21023 33.0578Z" fill="#020101"/>
  <path d="M9.03882 33.666C9.0821 33.6284 9.12747 33.6083 9.19131 33.5857C9.21337 33.6462 9.21696 33.7092 9.21567 33.7954C9.16408 33.8019 9.11737 33.7851 9.05333 33.761C9.03763 33.7302 9.03927 33.7069 9.03882 33.666Z" fill="#0F0E0D"/>
  <path d="M15.7508 31.5164C15.7506 31.5215 15.738 31.5062 15.7363 31.4966C15.7439 31.4927 15.7493 31.5008 15.7508 31.5164Z" fill="#0F0E0D"/>
  <path d="M9.22282 27.798C9.22282 27.798 9.25105 27.8 9.26475 27.7964C9.26828 27.8103 9.25811 27.8278 9.23482 27.8534C9.2217 27.8615 9.21936 27.8596 9.21924 27.8438C9.22035 27.818 9.22158 27.808 9.22282 27.798Z" fill="#0F0E0D"/>
  <path d="M8.99427 26.104C8.99068 24.5635 8.98709 23.023 8.98911 21.4557C9.05157 21.4288 9.10841 21.4288 9.18657 21.4287C9.20999 22.9686 9.2121 24.5086 9.18907 26.076C9.10738 26.1036 9.05082 26.1038 8.99427 26.104Z" fill="#020300"/>
  <path d="M17.7965 25.9981C17.0994 26.3967 16.4227 26.7884 15.7417 27.1722C15.3538 27.3908 15.1687 27.2774 15.1681 26.8246C15.1641 23.7871 15.1644 20.7497 15.1558 17.7123C15.155 17.4452 15.2522 17.2882 15.4827 17.1572C18.2933 15.5586 21.0992 13.9516 23.906 12.3462C24.3409 12.0975 24.5008 12.1863 24.5013 12.6906C24.5044 15.7281 24.5025 18.7657 24.5109 21.8032C24.5116 22.0754 24.4019 22.2271 24.1763 22.3553C22.0535 23.5616 19.935 24.7759 17.7965 25.9981ZM22.1639 19.8497C22.3236 19.7603 22.4783 19.6598 22.6441 19.5841C22.8626 19.4843 22.938 19.3378 22.9364 19.0877C22.9256 17.3454 22.9329 15.6029 22.9332 13.8605C22.9332 13.7808 22.9222 13.7011 22.9154 13.6104C22.8611 13.6333 22.8337 13.6416 22.8093 13.6556C20.5163 14.9697 18.2245 16.2861 15.9283 17.5947C15.7837 17.6771 15.7586 17.7724 15.7591 17.9201C15.7636 19.2148 15.7618 20.5094 15.7626 21.8041C15.7627 21.8552 15.7711 21.9064 15.781 22.0175C15.9853 21.7299 16.1622 21.5005 16.3168 21.2566C16.4232 21.0887 16.536 21.0786 16.7021 21.1558C17.2263 21.3994 17.7542 21.6353 18.2834 21.8676C18.3544 21.8988 18.4608 21.9286 18.5183 21.8975C18.9726 21.6522 19.419 21.3919 19.8468 21.1482C19.6496 20.9634 19.4788 20.7965 19.2993 20.6397C19.2483 20.5952 19.1738 20.5616 19.1068 20.5547C18.3307 20.4746 17.9053 19.6355 18.3314 18.9748C18.4556 18.7823 18.471 18.6359 18.4141 18.424C18.2761 17.9105 18.5572 17.3777 19.0185 17.1702C19.1443 17.1136 19.2727 17.0102 19.345 16.8935C19.7638 16.2183 20.5884 16.1458 21.1021 16.7437C21.1697 16.8224 21.2794 16.8914 21.3796 16.91C22.14 17.0507 22.4705 17.7778 22.0887 18.4644C22.0389 18.5541 22.0268 18.7042 22.0651 18.798C22.2046 19.1392 22.2396 19.4725 22.0726 19.8395C22.0774 19.8565 22.0822 19.8734 22.087 19.8904C22.0989 19.8772 22.1108 19.864 22.1639 19.8497ZM15.8869 22.3027C15.8451 22.4373 15.7692 22.5714 15.7672 22.7066C15.7556 23.5142 15.7606 24.3219 15.7616 25.1296C15.7617 25.1807 15.7753 25.2317 15.7869 25.3134C15.9332 25.2315 16.0502 25.1673 16.1659 25.1008C16.9441 24.6543 17.7216 24.2065 18.5 23.7604C19.8977 22.9594 21.2967 22.1607 22.692 21.3555C22.7832 21.3029 22.9109 21.2066 22.9146 21.1256C22.9361 20.666 22.925 20.205 22.925 19.6968C22.5156 19.9354 22.1709 20.1999 21.7827 20.3484C21.101 20.6091 20.8171 21.0347 20.9309 21.7785C20.9911 22.1719 20.6268 22.4866 20.228 22.4774C20.0064 22.4723 19.8599 22.3894 19.8733 22.1274C19.8848 21.9024 19.8757 21.6764 19.8757 21.4134C19.4482 21.6564 19.0673 21.8623 18.6979 22.0874C18.5238 22.1935 18.3858 22.2023 18.1945 22.1073C17.6546 21.8393 17.0991 21.6035 16.5431 21.3519C16.3192 21.6773 16.1164 21.9723 15.8869 22.3027ZM18.7288 17.7513C18.5097 18.1236 18.633 18.4787 18.8121 18.8202C18.4498 19.0664 18.3377 19.388 18.4417 19.7758C18.5354 20.1252 18.7753 20.2708 19.234 20.317C19.3151 20.3252 19.4279 20.382 19.461 20.4491C19.7618 21.0591 20.7013 20.9848 21.0125 20.3328C21.0499 20.2545 21.1524 20.171 21.2354 20.1577C21.8216 20.0639 22.1364 19.5087 21.864 18.9641C21.7403 18.7167 21.7428 18.5496 21.8928 18.3133C22.2261 17.7879 21.8766 17.1841 21.2593 17.1473C21.1609 17.1414 21.0435 17.0511 20.9779 16.9659C20.6828 16.5829 20.2122 16.4428 19.864 16.7094C19.6684 16.8592 19.5851 17.169 19.3832 17.2977C19.1714 17.4326 18.8916 17.4589 18.7288 17.7513ZM18.128 24.2599C17.4007 24.6769 16.6724 25.0919 15.9479 25.5137C15.8744 25.5564 15.7777 25.6355 15.7715 25.705C15.7499 25.9483 15.7632 26.1947 15.7632 26.4707C18.4675 24.924 21.1259 23.4036 23.8088 21.8692C23.6286 21.772 23.4668 21.7044 23.3272 21.605C23.116 21.4545 22.9428 21.4913 22.7265 21.6172C21.2106 22.4991 19.6864 23.3665 18.128 24.2599ZM23.2993 21.3092C23.4944 21.4062 23.6894 21.5033 23.8955 21.6058C23.8955 18.7422 23.8955 15.9103 23.8955 13.0437C23.7053 13.151 23.5527 13.2519 23.3883 13.3258C23.2158 13.4032 23.1614 13.513 23.1621 13.7064C23.1703 16.1394 23.1674 18.5724 23.1728 21.0053C23.173 21.0997 23.2278 21.1939 23.2993 21.3092ZM20.708 21.8788C20.708 21.5948 20.708 21.3108 20.708 21.0206C20.4892 21.0764 20.3172 21.1203 20.1289 21.1684C20.1289 21.5093 20.1289 21.8453 20.1289 22.1802C20.4192 22.2262 20.5421 22.171 20.708 21.8788Z" fill="#060807"/>
  <path d="M9.22286 27.7702C9.22123 27.8075 9.22 27.8175 9.21758 27.8426C9.15409 27.9141 9.09179 27.9704 9.01127 28.0295C8.98959 27.5438 8.98612 27.0553 9.00935 26.5397C9.09317 26.5132 9.1503 26.5137 9.20743 26.5143C9.2127 26.9239 9.21798 27.3334 9.22286 27.7702Z" fill="#010101"/>
  <path d="M9.21277 26.489C9.15048 26.5138 9.09335 26.5132 9.01473 26.5128C8.98957 26.3933 8.9859 26.2735 8.98808 26.1286C9.05048 26.1033 9.10704 26.1031 9.18467 26.1025C9.20981 26.2226 9.21387 26.3431 9.21277 26.489Z" fill="#0F0E0D"/>
  <path d="M29.1411 14.0613C29.3571 14.1082 29.5493 14.1569 29.7335 14.2035C29.7651 14.0359 29.7629 13.8296 29.8461 13.6682C29.9269 13.5115 30.0833 13.3187 30.2293 13.2968C30.3396 13.2803 30.5329 13.4849 30.6044 13.6329C30.7011 13.8332 30.7166 14.0736 30.7704 14.3119C31.0505 14.2475 31.4315 14.0978 31.5695 14.4906C31.6993 14.8603 31.3354 15.0339 31.0377 15.2348C31.234 15.3514 31.4061 15.47 31.5921 15.559C31.7503 15.6347 31.8072 15.7392 31.7698 15.9054C31.7677 15.9148 31.7694 15.9255 31.7659 15.9342C31.5366 16.5119 31.8045 16.8291 32.3179 17.027C32.4333 17.0715 32.5296 17.1694 32.6459 17.2085C33.0894 17.3574 33.2613 17.6623 33.168 18.115C33.1464 18.2201 33.0871 18.353 33.0037 18.4035C32.3854 18.7782 31.7604 19.1422 31.1272 19.4905C31.0321 19.5428 30.8594 19.5408 30.7633 19.4881C29.7074 18.9088 28.6579 18.3176 27.6131 17.718C27.5345 17.6729 27.4785 17.5446 27.4587 17.4455C27.3674 16.9901 27.5106 16.6618 27.9732 16.4996C28.1336 16.4433 28.2687 16.3173 28.425 16.2441C28.6364 16.1451 28.8105 16.0483 28.7311 15.7547C28.7153 15.6963 28.8187 15.5778 28.8936 15.5269C29.0837 15.3978 29.2888 15.2914 29.4638 15.1898C29.2771 14.9706 29.0757 14.7786 28.9298 14.5504C28.7816 14.3184 28.8561 14.175 29.1411 14.0613ZM30.7698 17.6866C30.453 17.9403 30.1358 17.9695 29.8104 17.6983C29.7447 17.6436 29.6639 17.6011 29.5834 17.572C29.0622 17.3834 28.7899 17.0257 28.82 16.4537C28.8218 16.4192 28.8004 16.3835 28.7794 16.3142C28.4549 16.5081 28.1501 16.6904 27.8104 16.8934C28.8495 17.4746 29.8422 18.032 30.839 18.5818C30.9016 18.6164 31.0141 18.6223 31.074 18.5885C31.6416 18.2682 32.2029 17.9365 32.809 17.5829C32.3948 17.343 32.0223 17.1272 31.5958 16.8801C31.6139 17.2827 31.3283 17.3751 31.0841 17.5087C30.991 17.5596 30.8992 17.6128 30.7698 17.6866ZM27.7088 17.3189C27.7784 17.4195 27.8258 17.5589 27.9211 17.6144C28.6712 18.0513 29.4303 18.4725 30.1869 18.8979C30.3951 19.015 30.6043 19.1301 30.8131 19.2461C30.8383 19.2308 30.8635 19.2155 30.8887 19.2001C30.8333 19.0642 30.8164 18.8613 30.7166 18.8027C29.7371 18.2278 28.7438 17.6769 27.7342 17.1077C27.7224 17.1818 27.7153 17.2269 27.7088 17.3189ZM29.5542 17.2819C29.7449 17.3891 29.9356 17.4963 30.1744 17.6304C30.1744 17.2482 30.1774 16.9122 30.1711 16.5763C30.1702 16.5277 30.1371 16.4571 30.0979 16.4352C29.7392 16.2354 29.3758 16.044 28.9627 15.8229C29.0032 16.1148 29.0527 16.3418 29.0621 16.5705C29.0758 16.9019 29.1922 17.147 29.5542 17.2819ZM30.4025 17.3466C30.4059 17.4195 30.4093 17.4923 30.4149 17.6123C30.7268 17.4356 31.0015 17.2839 31.271 17.1232C31.3143 17.0973 31.3535 17.0343 31.3617 16.983C31.4184 16.6313 31.4664 16.2783 31.5261 15.8634C31.3402 15.9656 31.216 16.0626 31.0755 16.1063C30.4786 16.292 30.2849 16.6995 30.4025 17.3466ZM31.3504 19.099C31.7983 18.8359 32.2408 18.5625 32.6966 18.3142C32.9159 18.1947 33.0121 18.06 32.8937 17.8043C32.3685 18.1113 31.8539 18.4289 31.3226 18.7148C31.0972 18.8362 31.0748 18.9894 31.1159 19.2269C31.1975 19.1845 31.2558 19.1542 31.3504 19.099ZM30.0417 13.8161C29.9321 14.1652 30.018 14.4734 30.2212 14.7684C30.5816 14.3704 30.5767 13.8283 30.1994 13.5335C30.1502 13.6141 30.1021 13.6929 30.0417 13.8161ZM30.7274 16.0077C30.7953 15.9604 30.8631 15.9131 30.9522 15.851C30.819 15.769 30.7143 15.7047 30.6706 15.6778C30.5214 15.8052 30.4121 15.9751 30.2826 15.9926C30.0442 16.0248 29.9489 15.8222 29.9285 15.5687C29.7778 15.659 29.6542 15.733 29.4835 15.8353C29.9169 16.0035 30.2336 16.4531 30.7274 16.0077ZM31.0376 14.5018C30.7317 14.5797 30.519 14.7589 30.4098 15.0699C30.877 15.121 31.2191 14.9266 31.3593 14.5175C31.2615 14.5082 31.1712 14.4996 31.0376 14.5018ZM29.4562 14.816C29.6219 14.8881 29.7877 14.9603 30.0052 15.055C29.8328 14.5094 29.5063 14.2672 29.0721 14.3571C29.2006 14.5161 29.3113 14.6532 29.4562 14.816ZM29.7778 15.2848C29.5641 15.3972 29.3503 15.5095 29.0777 15.6528C29.3357 15.6957 29.7342 15.4623 29.7778 15.2848Z" fill="#110F0E"/>
  <path d="M32.12 37.6809C32.057 37.6559 32.0088 37.6214 31.9553 37.5636C31.9848 37.4952 32.0196 37.45 32.069 37.3955C32.1453 37.404 32.207 37.4218 32.2882 37.4414C32.25 37.5193 32.1924 37.5954 32.12 37.6809Z" fill="#080807"/>
  <path d="M27.9668 27.0835C28.1842 26.9228 28.3958 26.7816 28.6179 26.6599C28.6377 26.6491 28.7692 26.7614 28.7748 26.8233C28.8011 27.1133 28.8265 27.4083 28.7985 27.6961C28.7878 27.8065 28.6519 27.9335 28.5417 27.9981C28.3838 28.0907 28.1972 28.1329 28.0228 28.1967C28.002 28.0283 27.9714 27.8605 27.9628 27.6916C27.9529 27.4976 27.9625 27.3027 27.9668 27.0835Z" fill="#040505"/>
  <path d="M33.5366 28.5791C32.9958 28.8392 32.9509 28.8426 32.6421 28.6511C32.8924 28.5594 33.1358 28.4702 33.4089 28.3702C33.4793 27.9313 33.8006 27.8116 34.2508 28.1621C34.0078 28.3043 33.7818 28.4365 33.5366 28.5791Z" fill="#114361"/>
  <path d="M31.8373 26.1096C31.6405 26.0055 31.4634 25.9098 31.2458 25.7922C31.4167 25.6937 31.5599 25.6113 31.7636 25.4939C31.662 25.9488 31.9803 26.0651 32.2605 26.2056C32.5809 26.3662 32.6741 26.3107 32.7325 25.9237C32.8779 26.0071 33.0166 26.0867 33.1575 26.1676C33.1429 26.1921 33.137 26.2075 33.1267 26.2186C32.6625 26.7157 32.267 26.3238 31.8373 26.1096Z" fill="#DEDEE1"/>
  <path d="M34.2564 28.4221C34.4224 28.5075 34.4384 28.5992 34.2956 28.6817C33.9491 28.8817 33.5923 29.0637 33.2277 29.2593C33.1299 29.0656 33.1993 28.9785 33.3504 28.9031C33.6498 28.7535 33.9422 28.5898 34.2564 28.4221Z" fill="#0D3F6E"/>
  <path d="M33.4425 26.936C33.5695 27.1054 33.5681 27.2623 33.395 27.3409C33.3048 27.3818 33.1294 27.3651 33.0684 27.3009C33.0056 27.2347 32.9895 27.0554 33.0341 26.9678C33.1199 26.7996 33.279 26.8122 33.4425 26.936Z" fill="#EC2C72"/>
  <path d="M32.4213 28.7968C32.5799 28.8679 32.725 28.9195 32.856 28.9958C32.925 29.036 32.9695 29.1192 33.0025 29.2025C32.5573 29.1455 32.1282 28.8637 32.0981 28.6252C32.209 28.6845 32.3054 28.736 32.4213 28.7968Z" fill="#114369"/>
  <path d="M32.1944 25.9186C32.1017 25.8062 32.0281 25.7055 31.9546 25.6049C31.9822 25.5829 32.0097 25.5608 32.0373 25.5388C32.2169 25.6611 32.5304 25.652 32.4587 26.0596C32.369 26.0123 32.2912 25.9714 32.1944 25.9186Z" fill="#DEDEDF"/>
  <path d="M33.1123 26.5696C33.0999 26.5846 33.0916 26.6039 33.0771 26.6155C33.0719 26.6196 33.052 26.605 33.0388 26.5989C33.0543 26.5895 33.0698 26.5801 33.101 26.5722C33.1167 26.5737 33.1138 26.5709 33.1123 26.5696Z" fill="#F0C482"/>
  <path d="M31.46 24.7968C31.1308 24.6113 30.8155 24.4439 30.5112 24.2581C30.4348 24.2114 30.3451 24.1065 30.3439 24.0271C30.3321 23.2389 30.3373 22.4503 30.3395 21.6618C30.3396 21.6363 30.3597 21.6109 30.3851 21.551C30.4907 21.5938 30.5973 21.6258 30.6934 21.6776C31.737 22.2408 32.7778 22.8092 33.8226 23.3701C33.9833 23.4564 34.0579 23.5548 34.0543 23.7528C34.0414 24.4632 34.0517 25.174 34.0515 25.8846C34.0515 25.9701 34.0413 26.0556 34.0298 26.2346C33.1463 25.7406 32.3122 25.2744 31.46 24.7968ZM31.6098 24.6312C31.6225 24.6062 31.6352 24.5812 31.6267 24.5222C31.5016 24.317 31.3289 24.1259 31.2637 23.9028C31.1855 23.6349 31.1521 23.334 31.1848 23.0577C31.2225 22.7375 31.5162 22.6314 31.8571 22.5647C31.3972 22.3188 30.995 22.1038 30.5709 21.8771C30.5709 22.5835 30.568 23.2525 30.5757 23.9214C30.5764 23.982 30.631 24.0663 30.6846 24.098C30.9825 24.274 31.2878 24.4373 31.6098 24.6312ZM32.347 24.9625C32.3218 24.9634 32.2966 24.9643 32.2714 24.9652C32.3 24.977 32.3286 24.9888 32.3625 25.0415C32.837 25.3058 33.3114 25.5701 33.8156 25.8509C33.8156 25.1261 33.817 24.4552 33.8133 23.7843C33.8129 23.7228 33.799 23.6282 33.7594 23.6053C33.4617 23.4328 33.156 23.2744 32.8528 23.1115C33.4787 24.0785 33.3519 24.965 32.347 24.9625ZM33.0014 24.3452C33.0505 23.7674 32.6652 23.1065 32.1482 22.8815C31.7153 22.6931 31.3362 22.9199 31.3342 23.3684C31.3321 23.8555 31.7443 24.4781 32.1914 24.6631C32.5435 24.8088 32.8047 24.7208 33.0014 24.3452Z" fill="#121211"/>
  <path d="M9.21472 33.0434C9.18898 33.0467 9.18356 33.0315 9.2023 33.0063C9.21324 33.0103 9.2161 33.0198 9.21472 33.0434Z" fill="#0F0E0D"/>
  <path d="M22.0892 19.8164C22.24 19.4732 22.205 19.1399 22.0655 18.7987C22.0272 18.7049 22.0393 18.5548 22.0892 18.4651C22.4709 17.7785 22.1404 17.0514 21.38 16.9106C21.2798 16.8921 21.1701 16.8231 21.1025 16.7444C20.5888 16.1465 19.7642 16.2189 19.3454 16.8942C19.2731 17.0108 19.1447 17.1142 19.0189 17.1709C18.5576 17.3784 18.2765 17.9111 18.4145 18.4247C18.4714 18.6366 18.456 18.7829 18.3318 18.9755C17.9057 19.6362 18.3311 20.4753 19.1072 20.5554C19.1742 20.5623 19.2487 20.5959 19.2997 20.6404C19.4792 20.7972 19.65 20.9641 19.8472 21.1489C19.4194 21.3926 18.973 21.6528 18.5187 21.8982C18.4612 21.9292 18.3549 21.8994 18.2838 21.8683C17.7546 21.6359 17.2267 21.4001 16.7025 21.1564C16.5364 21.0792 16.4236 21.0894 16.3172 21.2573C16.1626 21.5012 15.9857 21.7306 15.7814 22.0182C15.7715 21.9071 15.7631 21.8559 15.763 21.8047C15.7622 20.5101 15.764 19.2154 15.7595 17.9208C15.759 17.7731 15.7842 17.6777 15.9287 17.5954C18.2249 16.2868 20.5167 14.9704 22.8097 13.6563C22.8341 13.6423 22.8615 13.634 22.9158 13.6111C22.9226 13.7018 22.9336 13.7815 22.9336 13.8612C22.9333 15.6036 22.926 17.3461 22.9368 19.0884C22.9384 19.3385 22.863 19.485 22.6445 19.5848C22.4787 19.6605 22.324 19.7609 22.1359 19.8416C22.1074 19.8327 22.0892 19.8164 22.0892 19.8164Z" fill="white"/>
  <path d="M15.9008 22.2857C16.117 21.973 16.3198 21.6781 16.5437 21.3526C17.0997 21.6042 17.6552 21.8401 18.1951 22.1081C18.3864 22.2031 18.5244 22.1942 18.6985 22.0881C19.0679 21.8631 19.4488 21.6571 19.8763 21.4142C19.8763 21.6772 19.8854 21.9032 19.8739 22.1281C19.8605 22.3901 20.007 22.473 20.2286 22.4781C20.6274 22.4873 20.9917 22.1726 20.9315 21.7792C20.8177 21.0354 21.1016 20.6098 21.7833 20.3491C22.1715 20.2006 22.5162 19.9361 22.9257 19.6975C22.9257 20.2057 22.9367 20.6668 22.9153 21.1263C22.9115 21.2073 22.7838 21.3036 22.6926 21.3562C21.2973 22.1614 19.8983 22.9601 18.5006 23.7612C17.7222 24.2073 16.9447 24.655 16.1665 25.1016C16.0508 25.168 15.9338 25.2322 15.7875 25.3141C15.7759 25.2324 15.7623 25.1814 15.7622 25.1303C15.7612 24.3226 15.7562 23.5149 15.7678 22.7073C15.7698 22.5722 15.8457 22.4381 15.9008 22.2857Z" fill="white"/>
  <path d="M18.7416 17.7337C18.8921 17.4595 19.1719 17.4332 19.3836 17.2983C19.5855 17.1696 19.6688 16.8599 19.8645 16.71C20.2126 16.4434 20.6832 16.5836 20.9784 16.9666C21.0439 17.0517 21.1614 17.142 21.2597 17.1479C21.8771 17.1847 22.2266 17.7885 21.8932 18.3139C21.7432 18.5502 21.7407 18.7173 21.8645 18.9647C22.1368 19.5094 21.822 20.0646 21.2358 20.1584C21.1529 20.1716 21.0503 20.2551 21.0129 20.3334C20.7017 20.9854 19.7622 21.0597 19.4615 20.4498C19.4284 20.3826 19.3155 20.3258 19.2344 20.3177C18.7758 20.2714 18.5358 20.1258 18.4421 19.7764C18.3381 19.3887 18.4502 19.0671 18.8125 18.8209C18.6334 18.4794 18.5101 18.1242 18.7416 17.7337ZM21.3349 18.045C21.3567 17.9485 21.4273 17.814 21.3892 17.7642C21.3268 17.6825 21.1545 17.5886 21.0994 17.6214C21.0092 17.6751 20.9128 17.8391 20.9318 17.9335C20.9681 18.1134 21.1279 18.1529 21.3349 18.045ZM21.2024 19.886C21.2553 19.784 21.3382 19.6848 21.3482 19.5786C21.3529 19.5286 21.2219 19.4268 21.145 19.4186C21.0701 19.4105 20.9609 19.4723 20.9105 19.5378C20.7975 19.6846 20.8984 19.8215 21.2024 19.886ZM19.8019 18.2473C19.6462 18.1822 19.5052 18.2098 19.459 18.3776C19.4388 18.451 19.4988 18.5985 19.5627 18.6309C19.6438 18.6719 19.766 18.6299 19.8704 18.6238C19.8604 18.5068 19.8504 18.3898 19.8019 18.2473ZM19.8599 19.9527C19.7306 19.8362 19.5925 19.8286 19.4938 19.9731C19.4526 20.0335 19.448 20.1787 19.4906 20.2237C19.5485 20.2849 19.7198 20.3372 19.7501 20.3049C19.8241 20.2259 19.8451 20.0961 19.8599 19.9527Z" fill="white"/>
  <path d="M18.1468 24.2494C19.6868 23.3666 21.211 22.4992 22.7269 21.6173C22.9431 21.4915 23.1164 21.4547 23.3276 21.6052C23.4672 21.7046 23.6289 21.7722 23.8092 21.8694C21.1263 23.4038 18.4678 24.9242 15.7635 26.4708C15.7635 26.1949 15.7503 25.9485 15.7719 25.7052C15.7781 25.6357 15.8748 25.5566 15.9482 25.5138C16.6728 25.092 17.4011 24.677 18.1468 24.2494Z" fill="#DFDFE0"/>
  <path d="M23.2788 21.299C23.2283 21.1942 23.1735 21.1 23.1733 21.0056C23.1679 18.5726 23.1708 16.1396 23.1626 13.7067C23.162 13.5133 23.2164 13.4034 23.3888 13.326C23.5533 13.2522 23.7058 13.1513 23.896 13.0439C23.896 15.9105 23.896 18.7425 23.896 21.6061C23.6899 21.5036 23.4949 21.4065 23.2788 21.299Z" fill="#DFE1E2"/>
  <path d="M22.1153 19.8415C22.1113 19.8641 22.0994 19.8773 22.0875 19.8905C22.0827 19.8735 22.0779 19.8565 22.0812 19.8277C22.0893 19.8158 22.1075 19.8321 22.1153 19.8415Z" fill="#C2F4F2"/>
  <path d="M30.7884 17.6758C30.8993 17.6128 30.9912 17.5596 31.0842 17.5087C31.3284 17.3752 31.6141 17.2828 31.5959 16.8801C32.0224 17.1272 32.3949 17.343 32.8091 17.583C32.203 17.9365 31.6417 18.2683 31.0741 18.5885C31.0142 18.6223 30.9017 18.6164 30.8391 18.5818C29.8423 18.0321 28.8497 17.4746 27.8105 16.8935C28.1502 16.6904 28.4551 16.5082 28.7795 16.3142C28.8005 16.3835 28.8219 16.4192 28.8201 16.4537C28.79 17.0257 29.0623 17.3834 29.5835 17.572C29.6641 17.6012 29.7449 17.6436 29.8105 17.6983C30.1359 17.9696 30.4531 17.9403 30.7884 17.6758Z" fill="#EBC07F"/>
  <path d="M27.7083 17.2951C27.7151 17.2266 27.7222 17.1815 27.734 17.1074C28.7436 17.6766 29.7369 18.2275 30.7164 18.8024C30.8162 18.861 30.8331 19.0639 30.8885 19.1998C30.8633 19.2152 30.8381 19.2305 30.8129 19.2458C30.6041 19.1298 30.3949 19.0147 30.1867 18.8976C29.4301 18.4722 28.671 18.051 27.9209 17.6141C27.8256 17.5586 27.7782 17.4191 27.7083 17.2951Z" fill="#E7BF7F"/>
  <path d="M29.5356 17.2715C29.1924 17.1469 29.0759 16.9018 29.0623 16.5704C29.0529 16.3417 29.0034 16.1146 28.9629 15.8228C29.376 16.0439 29.7393 16.2353 30.098 16.4351C30.1373 16.457 30.1703 16.5276 30.1712 16.5762C30.1776 16.9121 30.1746 17.2481 30.1746 17.6303C29.9358 17.4961 29.7451 17.389 29.5356 17.2715Z" fill="#ED3F7A"/>
  <path d="M30.4023 17.3197C30.2848 16.6994 30.4785 16.2919 31.0754 16.1062C31.2159 16.0625 31.3401 15.9655 31.526 15.8633C31.4663 16.2782 31.4183 16.6313 31.3616 16.9829C31.3534 17.0342 31.3142 17.0972 31.2708 17.1231C31.0014 17.2838 30.7267 17.4355 30.4148 17.6122C30.4092 17.4923 30.4058 17.4194 30.4023 17.3197Z" fill="#EC3D74"/>
  <path d="M31.3319 19.1113C31.2555 19.1541 31.1972 19.1844 31.1156 19.2268C31.0745 18.9893 31.0969 18.8361 31.3223 18.7147C31.8536 18.4288 32.3682 18.1112 32.8934 17.8042C33.0118 18.0599 32.9156 18.1946 32.6963 18.3141C32.2405 18.5624 31.798 18.8358 31.3319 19.1113Z" fill="#E5BD7F"/>
  <path d="M30.0476 13.7939C30.1019 13.6929 30.15 13.614 30.1992 13.5334C30.5764 13.8283 30.5813 14.3704 30.221 14.7684C30.0178 14.4734 29.9319 14.1652 30.0476 13.7939Z" fill="#68B49B"/>
  <path d="M30.7097 16.021C30.2335 16.4535 29.9168 16.0039 29.4834 15.8357C29.654 15.7335 29.7777 15.6594 29.9284 15.5691C29.9487 15.8226 30.0441 16.0253 30.2825 15.993C30.412 15.9755 30.5213 15.8057 30.6705 15.6783C30.7142 15.7051 30.8189 15.7695 30.9521 15.8514C30.863 15.9135 30.7951 15.9609 30.7097 16.021Z" fill="#70C6B4"/>
  <path d="M31.0593 14.4971C31.1713 14.5003 31.2616 14.5089 31.3594 14.5182C31.2192 14.9273 30.8771 15.1217 30.4099 15.0706C30.5191 14.7595 30.7318 14.5803 31.0593 14.4971Z" fill="#5AAA8F"/>
  <path d="M29.4393 14.8029C29.3115 14.653 29.2008 14.516 29.0723 14.357C29.5065 14.267 29.833 14.5093 30.0054 15.0548C29.7879 14.9602 29.6221 14.888 29.4393 14.8029Z" fill="#63AA94"/>
  <path d="M29.7986 15.2834C29.7341 15.4626 29.3356 15.696 29.0776 15.6531C29.3502 15.5098 29.5639 15.3974 29.7986 15.2834Z" fill="#B82260"/>
  <path d="M32.9968 24.369C32.8047 24.7205 32.5436 24.8085 32.1914 24.6629C31.7443 24.4779 31.3321 23.8552 31.3342 23.3681C31.3362 22.9197 31.7153 22.6929 32.1482 22.8813C32.6652 23.1062 33.0505 23.7672 32.9968 24.369ZM31.7274 23.7845C31.6269 24.0443 31.8371 24.1748 31.9858 24.2634C32.1414 24.356 32.3557 24.3536 32.5462 24.374C32.5739 24.377 32.6125 24.2761 32.646 24.2233C32.5926 24.199 32.522 24.1395 32.4884 24.1561C32.1986 24.2999 32.0659 24.0974 31.9189 23.9123C31.8751 23.857 31.8167 23.8136 31.7274 23.7845Z" fill="#EBE051"/>
  <path d="M32.3625 24.993C33.3516 24.9649 33.4783 24.0784 32.8525 23.1113C33.1557 23.2742 33.4614 23.4326 33.7591 23.6051C33.7986 23.6281 33.8126 23.7226 33.8129 23.7841C33.8166 24.455 33.8153 25.1259 33.8153 25.8507C33.3111 25.5699 32.8367 25.3056 32.3609 25.019C32.3597 24.9967 32.3625 24.993 32.3625 24.993Z" fill="#BEF6F3"/>
  <path d="M31.5906 24.604C31.2878 24.4364 30.9824 24.2732 30.6845 24.0971C30.6309 24.0654 30.5764 23.9812 30.5757 23.9206C30.568 23.2517 30.5708 22.5826 30.5708 21.8762C30.995 22.103 31.3971 22.3179 31.8571 22.5638C31.5161 22.6306 31.2225 22.7366 31.1847 23.0568C31.1521 23.3331 31.1854 23.634 31.2637 23.9019C31.3288 24.125 31.5016 24.3161 31.6224 24.5498C31.6089 24.5868 31.5997 24.5954 31.5906 24.604Z" fill="#BCF4F1"/>
  <path d="M32.3589 24.9983C32.3289 24.9884 32.3003 24.9766 32.2717 24.9648C32.2969 24.9639 32.3221 24.963 32.3552 24.9775C32.3631 24.9928 32.3603 24.9965 32.3589 24.9983Z" fill="#BEF6F3"/>
  <path d="M31.6329 24.5676C31.6351 24.5812 31.6224 24.6062 31.6001 24.618C31.5997 24.5963 31.6089 24.5877 31.6329 24.5676Z" fill="#BCF4F1"/>
  <path d="M21.1816 19.8924C20.8982 19.8214 20.7974 19.6845 20.9103 19.5377C20.9607 19.4722 21.0699 19.4104 21.1448 19.4184C21.2217 19.4267 21.3527 19.5285 21.348 19.5785C21.338 19.6847 21.2552 19.7839 21.1816 19.8924Z" fill="white"/>
  <path d="M19.8739 19.9693C19.8454 20.0957 19.8244 20.2254 19.7503 20.3044C19.7201 20.3367 19.5488 20.2845 19.4908 20.2232C19.4482 20.1782 19.4528 20.033 19.494 19.9727C19.5928 19.8281 19.7309 19.8358 19.8739 19.9693Z" fill="white"/>
  <path d="M31.7459 23.7749C31.8163 23.8138 31.8748 23.8573 31.9186 23.9125C32.0656 24.0977 32.1983 24.3002 32.4881 24.1564C32.5217 24.1398 32.5922 24.1993 32.6457 24.2235C32.6121 24.2764 32.5736 24.3773 32.5459 24.3743C32.3554 24.3538 32.1411 24.3563 31.9855 24.2636C31.8368 24.1751 31.6266 24.0446 31.7459 23.7749Z" fill="#1A1710"/>
</svg>