<svg width="512" height="512" viewBox="0 0 512 512" fill="none" xmlns="http://www.w3.org/2000/svg">
<!-- Yellow background -->
<rect width="512" height="512" fill="#FFC400"/>
<!-- Beemo logo centered and scaled -->
<g transform="translate(256, 256) scale(0.48) translate(-268, -237.5)">
<path d="M339.239 438.075L323.946 423.26C322.499 421.858 321.647 419.954 321.566 417.942L318.035 330.846C317.973 329.321 318.618 315.808 321.693 273.962C322.685 260.456 323.488 250.901 324.129 244.262C324.735 237.989 332.947 226.143 337.876 222.216L364.367 201.113C364.686 200.859 365.009 200.638 365.364 200.437C384.844 189.379 430.375 164.111 460.962 149.077C483.102 138.194 491.759 138.551 494.321 141.554C496.125 143.668 496.132 147.05 498.037 149.075L513.47 165.473C515.006 167.105 515.771 169.316 515.572 171.548L512.616 204.654V253.692V308.698C512.616 309.51 512.49 310.316 512.242 311.089L497.786 356.266C497.228 358.008 496.08 359.501 494.539 360.486L394.475 424.45C393.905 424.815 393.289 425.105 392.644 425.311L347.093 439.911C344.337 440.794 341.318 440.089 339.239 438.075Z" fill="white"/>
<path d="M317.77 324.308L318.035 330.846M318.035 330.846L321.566 417.942C321.647 419.954 322.499 421.858 323.946 423.26L339.239 438.075C341.318 440.089 344.337 440.794 347.093 439.911L392.644 425.311C393.289 425.105 393.905 424.815 394.475 424.45L494.539 360.486C496.08 359.501 497.228 358.008 497.786 356.266L512.242 311.089C512.49 310.316 512.616 309.51 512.616 308.698V253.692V204.654L515.572 171.548C515.771 169.316 515.006 167.105 513.47 165.473L498.037 149.075C496.132 147.05 496.125 143.668 494.321 141.554C491.759 138.551 483.102 138.194 460.962 149.077C430.375 164.111 384.844 189.379 365.364 200.437C365.009 200.638 364.686 200.859 364.367 201.113L337.876 222.216C332.947 226.143 324.735 237.989 324.129 244.262C323.488 250.901 322.685 260.456 321.693 273.962C318.618 315.808 317.973 329.321 318.035 330.846Z" stroke="#030303" stroke-width="6.53846" stroke-linecap="round"/>
<path d="M276.106 25.2062C303.402 10.0173 330.918 9.92492 358.46 24.8195C385.26 39.3128 411.071 54.9598 438.46 70.7325C452.445 78.8421 465.632 86.2605 478.718 94.1671C507.35 111.467 521.573 136.289 521.881 169.548C522.298 214.552 522.266 259.573 521.854 304.591C521.55 337.931 507.265 362.844 478.623 379.784C438.93 403.26 399.131 426.44 358.955 448.853C331.444 464.201 303.762 464.188 276.229 448.866C236.419 426.713 197.038 403.704 157.606 380.538C128.048 363.172 113.511 337.673 113.301 303.296C113.031 259.135 113.084 214.957 113.282 170.759C113.438 136.133 128.157 110.626 157.998 93.1661C197.306 70.167 236.484 47.2549 276.106 25.2062ZM515.878 179.216C515.244 150.619 485.612 133.196 460.324 146.176C454.541 149.144 448.466 152.95 443.051 156.069L443.039 156.075C409.595 175.38 376.412 194.738 342.964 213.739C334.831 218.36 328.153 224.404 323.646 232.334C319.148 240.247 317.367 249.061 317.45 258.341C317.825 300.075 317.602 341.742 317.623 383.664C317.627 390.684 317.318 399.357 317.715 407.648L317.804 409.3C319.13 431.326 339.047 446.081 360.491 440.658C366.4 439.164 371.629 436.011 374.568 434.322C402.717 418.152 430.816 401.889 458.894 385.667C466.324 381.374 473.083 377.323 480.225 373.312C504.084 359.911 515.198 338.733 516.092 312.598C516.737 293.735 509.691 277.218 495.708 265.313C496.676 263.922 497.68 262.491 498.718 261.019C501.316 257.331 504.118 253.358 506.599 249.515C511.484 241.947 515.708 232.604 515.881 221.546C516.1 207.539 516.192 193.397 515.878 179.216Z" fill="#63BDA4" stroke="black" stroke-width="27.4615"/>
<path d="M417.789 341.854C425.604 343.715 442.966 342.343 449.896 321.964" stroke="black" stroke-width="13.0769" stroke-linecap="round"/>
<path d="M381.043 251.348V291.233" stroke="black" stroke-width="17" stroke-linecap="round"/>
<path d="M454.273 210.81V250.695" stroke="black" stroke-width="17" stroke-linecap="round"/>
<path d="M50.0392 138.123L172.848 257.265C174.371 258.743 175.231 260.775 175.231 262.897V320.728C175.231 323.448 176.639 325.974 178.953 327.403L250.876 371.836C256.103 375.065 262.846 371.305 262.846 365.161V253.738C262.846 250.998 261.417 248.456 259.075 247.033L59.5776 125.786C51.5874 120.93 43.3282 131.612 50.0392 138.123Z" fill="black"/>
</g>
</svg>
